<svg xmlns="http://www.w3.org/2000/svg" width="345.707" height="216" viewBox="0 0 151 97" fill="none">
  <g clip-path="url(#clip0_1_709)">
  
    
    
    
    
   
    

    
   
   
   
  
    <path d="M135.299 96.6154H150.913C150.599 89.4696 147.908 79.5052 136.355 74.6121C117.187 66.4814 151.598 59.4802 137.761 41.974L128.386 45.1446C128.386 45.1446 132.577 51.668 125.9 61.5443C119.224 71.4206 117.768 78.6796 129.385 84.4884C135.299 87.4369 136.018 92.4285 135.299 96.6154Z" fill="#0096C8"/>
    <path d="M150.913 96.6153C150.875 95.9091 150.819 95.2029 150.741 94.5009C150.664 93.7989 150.557 93.1011 150.429 92.4054C150.175 91.0153 149.813 89.647 149.348 88.3128C148.884 86.9797 148.3 85.6919 147.602 84.4654C146.909 83.2376 146.096 82.0821 145.173 81.0161C144.252 79.9504 143.231 78.975 142.124 78.1033C141.016 77.2316 139.833 76.4602 138.589 75.7982C137.96 75.4671 137.332 75.157 136.688 74.8782C136.045 74.5995 135.393 74.3166 134.754 73.9981C134.115 73.6838 133.496 73.3289 132.902 72.9357C132.299 72.5426 131.749 72.0727 131.267 71.5379C130.768 70.9959 130.432 70.3241 130.297 69.5996L130.259 69.325C130.259 69.2328 130.259 69.1406 130.259 69.0484V68.9101L130.272 68.7739L130.299 68.4994C130.359 68.1404 130.458 67.7891 130.594 67.4516C130.867 66.7874 131.219 66.1584 131.642 65.5782C132.061 64.9956 132.506 64.4445 132.967 63.9018C133.891 62.8247 134.853 61.7936 135.791 60.7333C136.732 59.6864 137.61 58.5843 138.419 57.4328C139.23 56.2904 139.883 55.0443 140.362 53.7279C140.596 53.0716 140.763 52.3934 140.861 51.7036C140.962 51.0155 140.988 50.3185 140.938 49.6248C140.828 48.2326 140.459 46.8731 139.851 45.616C139.246 44.3513 138.497 43.1614 137.617 42.0704L137.826 42.129L128.451 45.2933L128.541 45.0377C128.859 45.5947 129.112 46.1859 129.297 46.8C129.486 47.4061 129.626 48.0262 129.716 48.6546C129.895 49.9092 129.904 51.1821 129.744 52.4391C129.587 53.6934 129.293 54.9266 128.868 56.1168C128.445 57.3046 127.922 58.4542 127.304 59.5535C126.695 60.6579 125.976 61.6931 125.295 62.7366C124.614 63.7802 123.966 64.849 123.371 65.9428C122.772 67.0339 122.25 68.1654 121.808 69.3292C121.369 70.4902 121.077 71.7019 120.94 72.9357C120.813 74.1678 120.936 75.413 121.301 76.5966C121.697 77.7712 122.316 78.8584 123.124 79.7986C123.942 80.7366 124.87 81.5725 125.888 82.2881C126.901 83.0166 127.966 83.6694 129.075 84.2411C129.352 84.3857 129.631 84.5408 129.901 84.6917C130.179 84.8375 130.449 84.9976 130.71 85.1716C130.967 85.3497 131.238 85.5152 131.487 85.7059L132.221 86.3011C133.165 87.1365 133.94 88.1443 134.507 89.2705C135.052 90.4044 135.384 91.6291 135.485 92.8832C135.585 94.1329 135.522 95.3901 135.299 96.6237C135.509 95.3898 135.558 94.1339 135.446 92.8874C135.333 91.6417 134.992 90.4275 134.438 89.3061C133.862 88.1955 133.079 87.2048 132.133 86.387L131.401 85.8044C131.154 85.6179 130.886 85.4587 130.63 85.2847C130.368 85.1143 130.098 84.9583 129.819 84.8174C129.543 84.6665 129.274 84.5199 128.993 84.3774C127.871 83.8158 126.792 83.1707 125.766 82.4474C124.73 81.7261 123.785 80.8817 122.952 79.9327C122.119 78.9754 121.478 77.8661 121.066 76.6657C120.686 75.4577 120.555 74.1853 120.68 72.9252C120.811 71.6678 121.1 70.432 121.542 69.2475C121.981 68.0633 122.502 66.9114 123.103 65.8003C123.694 64.6918 124.343 63.6168 125.027 62.5648C125.71 61.5128 126.42 60.4881 127.017 59.3984C127.624 58.3137 128.138 57.1794 128.553 56.0078C128.97 54.8393 129.256 53.6285 129.406 52.3972C129.561 51.1691 129.549 49.9258 129.373 48.7007C129.281 48.0906 129.14 47.4887 128.954 46.9006C128.776 46.3169 128.534 45.7547 128.233 45.2242L128.122 45.0356L128.331 44.9664L137.711 41.7958L137.833 41.7539L137.91 41.8545C138.801 42.9696 139.56 44.184 140.171 45.4735C140.792 46.7715 141.165 48.1735 141.273 49.608C141.37 51.0496 141.168 52.4956 140.68 53.8557C140.187 55.1958 139.518 56.4643 138.69 57.6277C137.872 58.7877 136.985 59.8976 136.035 60.9512C135.096 62.0137 134.128 63.0468 133.208 64.1092C132.749 64.6436 132.304 65.1884 131.898 65.7584C131.484 66.3179 131.138 66.9242 130.867 67.5648C130.736 67.8817 130.641 68.2119 130.582 68.5497L130.557 68.8032L130.544 68.929V69.0547V69.3083L130.578 69.5597C130.701 70.2337 131.011 70.8595 131.473 71.3661C131.936 71.8851 132.465 72.3416 133.046 72.724C133.629 73.1115 134.236 73.4615 134.863 73.7718C135.492 74.0882 136.139 74.3669 136.783 74.6582C137.426 74.9495 138.069 75.2596 138.694 75.597C141.208 76.9358 143.449 78.7325 145.303 80.8946C146.222 81.9778 147.03 83.1502 147.715 84.3941C148.403 85.6335 148.976 86.9333 149.427 88.2772C149.883 89.6184 150.233 90.993 150.475 92.3886C150.594 93.0864 150.684 93.7885 150.764 94.4842C150.844 95.1799 150.881 95.9091 150.913 96.6153Z" fill="#1B4268"/>
    <path d="M133.731 44.0927L122.114 34.3128L121.437 35.1845L133.055 44.0927H133.731Z" fill="#1E191A"/>
    <path d="M132.862 43.026C132.862 43.026 130.347 40.6057 126.366 44.9623C124.387 47.1354 122.527 48.9439 121.16 50.218L118.331 41.9615L110.888 44.5747C110.888 44.5747 115.825 59.8721 119.214 61.4208C121.554 62.4916 131.414 46.7058 131.414 46.7058C131.414 46.7058 136.653 51.4501 132.187 45.8341C132.187 45.8341 138.683 51.5465 132.77 45.0587C132.77 45.0587 140.523 48.9313 133.059 44.0906C133.055 44.0906 140.703 47.1899 132.862 43.026Z" fill="#965450"/>
    <path d="M116.546 47.7892C117.684 47.2925 118.732 46.609 119.645 45.767L118.342 41.9615L110.888 44.5747C110.888 44.5747 111.485 46.4271 112.407 48.9062C113.822 48.6589 115.236 48.3508 116.546 47.7892Z" fill="#76413B"/>
    <path d="M110.888 44.5746C110.888 44.5746 115.825 59.8721 119.214 61.4207C121.554 62.4915 131.414 46.7058 131.414 46.7058C131.414 46.7058 136.653 51.4501 132.187 45.834C132.187 45.834 138.683 51.5465 132.77 45.0587C132.77 45.0587 140.523 48.9312 133.059 44.0905C133.059 44.0905 140.708 47.1898 132.866 43.026C132.866 43.026 130.351 40.6056 126.37 44.9623C124.392 47.1354 118.472 52.5272 117.105 53.7971" stroke="#54201C" stroke-width="0.5" stroke-linecap="round" stroke-linejoin="round"/>
    <path d="M119.899 43.8977C119.899 43.8977 116.994 46.2216 111.282 47.2862C111.282 47.2862 107.217 35.6685 112.83 33.925C117.418 32.4979 119.899 43.8977 119.899 43.8977Z" fill="#FDDEC0"/>
    <path d="M118.365 39.0465L118.838 40.2284L119.071 40.8214L119.281 41.4249L119.49 42.0306C119.559 42.2401 119.624 42.435 119.681 42.6404L119.851 43.2544C119.911 43.4639 119.96 43.6735 120.012 43.883L120.027 43.948L119.972 43.992C119.815 44.1177 119.652 44.2225 119.492 44.3378C119.333 44.453 119.161 44.5473 118.996 44.6542L118.746 44.8093L118.488 44.9517L117.975 45.2346C117.805 45.3331 117.625 45.4107 117.449 45.4966L116.917 45.746C116.739 45.8277 116.563 45.9136 116.378 45.9786L115.831 46.1881L115.284 46.3977C115.102 46.4731 114.913 46.5255 114.727 46.5842L113.606 46.9279L113.323 47.0117L113.038 47.0766L112.466 47.2066L111.307 47.4643L111.154 47.4978L111.104 47.3449C110.894 46.756 110.733 46.163 110.576 45.5657C110.419 44.9685 110.276 44.3671 110.157 43.7615C110.096 43.4576 110.043 43.1538 109.993 42.8478C109.943 42.5419 109.901 42.238 109.861 41.93C109.821 41.6219 109.788 41.316 109.767 41.0058C109.746 40.6957 109.731 40.3772 109.721 40.0796C109.71 39.782 109.721 39.4509 109.731 39.1492C109.731 38.9941 109.744 38.839 109.758 38.684C109.773 38.5289 109.779 38.3759 109.805 38.2209L109.872 37.7598L109.964 37.303C110.034 36.9988 110.125 36.6998 110.236 36.4082C110.29 36.2647 110.353 36.1247 110.425 35.9891L110.528 35.7795L110.653 35.5805L110.777 35.3835C110.821 35.3185 110.873 35.2598 110.921 35.1991C111.114 34.9539 111.336 34.7342 111.584 34.5453L111.772 34.4112L111.867 34.3441L111.971 34.2896C112.107 34.2125 112.247 34.1425 112.39 34.0801L112.826 33.9271L112.407 34.1052C112.267 34.166 112.141 34.2561 112.007 34.3294L111.908 34.3881L111.818 34.4573L111.64 34.5998C111.521 34.6934 111.411 34.7979 111.311 34.912C111.205 35.0206 111.109 35.1384 111.024 35.264C110.98 35.3248 110.932 35.3835 110.892 35.4484L110.781 35.6454L110.668 35.8424L110.578 36.052C110.513 36.1876 110.457 36.3276 110.412 36.4711C110.314 36.7568 110.234 37.0487 110.173 37.3449L110.094 37.7934L110.043 38.246C110.022 38.3969 110.022 38.5499 110.01 38.7007C109.997 38.8516 109.995 39.0046 109.995 39.1576C109.995 39.4614 109.995 39.7653 110.01 40.0691C110.025 40.373 110.046 40.6768 110.081 40.9807C110.117 41.2845 110.146 41.5863 110.186 41.8881C110.226 42.1898 110.274 42.4916 110.328 42.7933C110.383 43.0951 110.439 43.3927 110.502 43.6923C110.628 44.2889 110.768 44.8833 110.921 45.4756C111.081 46.0645 111.255 46.6533 111.447 47.2254L111.238 47.1081L112.369 46.8566L112.935 46.7309L113.218 46.668C113.31 46.645 113.403 46.6135 113.495 46.5863L114.605 46.2573C114.79 46.2007 114.978 46.1525 115.157 46.0792L115.699 45.8696L116.242 45.66C116.424 45.5972 116.6 45.5155 116.776 45.4379L117.305 45.2032C117.481 45.1236 117.661 45.0523 117.83 44.958L118.344 44.694L118.602 44.562L118.851 44.4258C119.017 44.3252 119.186 44.233 119.346 44.1282C119.505 44.0234 119.67 43.9186 119.819 43.8055L119.781 43.9145C119.735 43.7049 119.693 43.4953 119.639 43.2984L119.486 42.6823C119.392 42.2632 119.262 41.8692 119.151 41.4606L118.979 40.8487L118.769 40.2472L118.365 39.0465Z" fill="#EAC5A7"/>
    <path d="M67.8789 76.8817L62.3509 96.6154H75.5843L82.2376 74.717L67.8789 76.8817Z" fill="#FFAC9D"/>
    <path d="M77.2691 90.6725L82.2397 74.717L67.8789 76.8796L64.6602 88.25C68.6501 89.7819 72.9585 90.4147 77.2691 90.6725Z" fill="#F29083"/>
    <path d="M83.4174 74.7169L86.3365 96.6153H97.9165L93.4509 69.0128L83.4174 74.7169Z" fill="#F29083"/>
    <path d="M67.8789 76.8817L62.3509 96.6154H75.5843L82.2376 74.717L67.8789 76.8817Z" stroke="#D15A5A" stroke-width="0.6" stroke-miterlimit="10"/>
    <path d="M83.4174 74.7169L86.3365 96.6153H97.9165L93.4509 69.0128L83.4174 74.7169Z" stroke="#D15A5A" stroke-width="0.6" stroke-miterlimit="10"/>
    <path d="M81.4518 77.4706L84.0084 87.699C84.0084 87.699 91.8771 86.9132 98.3691 83.9626C98.3691 83.9626 93.4509 65.0776 91.2862 61.3412C89.1215 57.6048 81.4518 77.4706 81.4518 77.4706Z" fill="#0096C8"/>
    <path d="M67.8789 68.0281L64.1426 85.9283C64.1426 85.9283 71.2234 88.8788 80.469 87.699L81.6488 80.0272L96.2044 75.6999C96.2044 75.6999 93.6479 66.0604 91.0913 59.7737C88.5347 53.4871 67.8789 68.0281 67.8789 68.0281Z" fill="#0096C8"/>
    <path d="M93.4949 66.5296C92.751 64.2245 91.9191 61.8167 91.0871 59.7673C88.5285 53.4806 67.8748 68.0279 67.8748 68.0279L66.9192 72.6151C81.2548 71.7664 92.0825 67.3154 93.4949 66.5296Z" fill="#0096C8"/>
    <path d="M98.3691 83.9625C98.3691 83.9625 93.6479 66.0623 91.0913 59.7673C88.5347 53.4723 67.8789 68.028 67.8789 68.028L64.1426 85.9281C64.1426 85.9281 71.2234 88.8787 80.469 87.6989L81.6488 80.0271L82.0679 79.9055L84.0146 87.6989C84.0146 87.6989 91.8771 86.9131 98.3691 83.9625Z" stroke="#1B4268" stroke-width="0.5" stroke-miterlimit="10"/>
    <path d="M92.6567 76.7097L91.9149 76.9696C91.4434 77.1288 90.7707 77.3698 89.9576 77.6359C89.1445 77.9021 88.1974 78.2185 87.1768 78.5412L85.6031 79.0358L83.9769 79.5366L82.3466 80.0249L80.7644 80.4901C79.7376 80.7918 78.7737 81.0517 77.9522 81.2864C77.1308 81.5211 76.435 81.6908 75.9531 81.8228L75.1924 82.0177L75.9342 81.7558C76.4057 81.5965 77.0784 81.3555 77.8914 81.0894C78.7045 80.8233 79.6517 80.5068 80.6722 80.1841L82.246 79.6917L83.8721 79.1887L85.5025 78.7005L87.0846 78.2353C88.1114 77.9356 89.0754 77.6737 89.8968 77.4411C90.7183 77.2084 91.414 77.0345 91.896 76.9025L92.6567 76.7097Z" fill="#1B4268"/>
    <path d="M61.6573 31.161L66.6133 30.1509C66.6133 30.1509 62.4808 6.84637 63.6397 5.9872C64.7985 5.12803 73.4888 4.70053 75.2532 8.46204C76.0328 10.1196 81.1207 25.042 73.8911 27.3764L74.2159 29.757C74.2159 29.757 77.0135 29.363 79.3374 29.1283C81.6614 28.8936 80.0751 39.5117 72.2126 39.7087C64.3501 39.9057 61.6573 31.161 61.6573 31.161Z" fill="#FFAC9D"/>
    <path d="M69.876 28.7093C71.1484 29.5442 72.6965 29.8495 74.1907 29.56L73.891 27.3702C70.5151 27.6845 68.2477 25.9347 66.7096 23.6653C67.3005 25.6518 68.2331 27.6615 69.876 28.7093Z" fill="#F29083"/>
    <path d="M64.8509 17.2005C64.8509 17.2005 63.2101 15.3501 62.4389 17.5253C61.4456 20.3208 64.3752 22.8124 65.9552 20.5932C67.5353 18.374 64.8509 17.2005 64.8509 17.2005Z" fill="#FFAC9D"/>
    <path d="M65.2805 22.1524L65.6137 24.1536C65.7247 24.82 65.8337 25.4864 65.9552 26.1507L66.3094 28.1457L66.6803 30.1385L66.6929 30.2056L66.6279 30.2182L61.674 31.2492L61.7432 31.1381C61.9164 31.7249 62.1264 32.3002 62.3718 32.8606C62.6143 33.4234 62.8871 33.9725 63.1891 34.5056C63.4879 35.0396 63.8182 35.5553 64.1782 36.0501C64.54 36.5435 64.9356 37.0112 65.3622 37.4499C66.2123 38.3363 67.2274 39.0482 68.3504 39.5454C68.9173 39.7834 69.5082 39.9598 70.1128 40.0714C70.7146 40.2001 71.3339 40.2256 71.9443 40.1469V40.3187C71.6342 40.281 71.3261 40.2642 71.0181 40.2349C70.71 40.2055 70.402 40.1762 70.0981 40.1238C69.4877 40.02 68.8904 39.85 68.3169 39.6167C67.1652 39.1465 66.1177 38.4536 65.2344 37.5777C64.7892 37.1442 64.3805 36.6745 64.0127 36.1737C63.6413 35.6769 63.3032 35.1561 63.0005 34.6146C62.6992 34.071 62.4278 33.5114 62.1874 32.9382C61.9414 32.3672 61.7315 31.7814 61.5588 31.1842L61.5336 31.092L61.6279 31.0731L66.5902 30.084L66.5357 30.1637L66.1878 28.1666C66.0747 27.5002 65.9783 26.8318 65.8651 26.1633C65.752 25.4948 65.6556 24.8284 65.5634 24.1599L65.2805 22.1524Z" fill="#D15A5A"/>
    <path d="M65.3224 18.8601C65.3224 18.8601 65.1924 16.1066 63.0277 16.6305C63.0277 16.6305 61.98 17.5483 62.2419 18.8601C62.2419 18.8601 57.5856 12.2382 59.0273 8.89372C60.4691 5.54923 62.9628 6.19885 62.9628 6.19885C62.9628 6.19885 64.6015 -1.40589 74.635 0.494769L73.8491 1.34766C73.8491 1.34766 75.4229 0.232826 78.4384 0.626788C78.4384 0.626788 77.9145 4.23322 75.6848 6.07521C76.75 4.98818 77.736 3.82638 78.6354 2.5987C78.6354 2.5987 79.8131 6.2659 74.8299 9.01107C69.8466 11.7562 65.1254 8.68207 65.1254 8.68207C65.1254 8.68207 67.1581 12.2235 64.7985 13.6003L66.3722 19.2394L65.3873 19.7633L65.3224 18.8601Z" fill="#965450"/>
    <path d="M62.2419 18.8602C61.4703 17.7694 60.7797 16.6236 60.1757 15.4319C60.0269 15.1322 59.8802 14.8325 59.7566 14.5287C59.6329 14.2248 59.4904 13.9147 59.3689 13.6024C59.2473 13.2902 59.1384 12.9738 59.0399 12.6553C58.9414 12.3367 58.8555 12.0098 58.7926 11.6787C58.723 11.3486 58.6775 11.0138 58.6564 10.6771C58.6354 10.337 58.6502 9.99563 58.7004 9.65863C58.7085 9.57294 58.7239 9.4881 58.7465 9.40506C58.7675 9.32124 58.7842 9.23742 58.8094 9.1557L58.8974 8.91052L58.9183 8.84975C58.927 8.82827 58.9367 8.80728 58.9477 8.78688L59.0001 8.67582C59.0734 8.52494 59.1405 8.37406 59.2096 8.22527L59.4758 7.78311C59.568 7.64062 59.6853 7.5086 59.7775 7.364C59.8697 7.21941 60.0101 7.11044 60.1254 6.98261C60.2406 6.85479 60.3831 6.7563 60.5172 6.64733C60.659 6.54704 60.8066 6.45537 60.9594 6.37281C61.2657 6.20599 61.598 6.09193 61.9422 6.03543C62.2885 5.97154 62.6436 5.97154 62.99 6.03543L62.7972 6.15487C62.8704 5.8535 62.9656 5.55793 63.0822 5.27055C63.1974 4.98766 63.3253 4.70895 63.4678 4.43234C63.6144 4.16791 63.7746 3.91121 63.9477 3.66327C64.0336 3.53544 64.1237 3.4118 64.2201 3.29236C64.3165 3.17291 64.4108 3.05137 64.5093 2.93402C64.9103 2.4676 65.3646 2.04983 65.863 1.68927C65.9845 1.59497 66.1144 1.51324 66.2423 1.42942L66.4372 1.30369L66.6467 1.19053C66.9135 1.03615 67.1884 0.896246 67.4703 0.771417L67.8894 0.599582C68.0319 0.547193 68.1807 0.503187 68.3253 0.454989C68.4698 0.406791 68.6186 0.366977 68.7674 0.331353C68.9162 0.295728 69.0629 0.249626 69.2138 0.222384C69.5155 0.1679 69.8152 0.105033 70.119 0.0777909C70.272 0.0610265 70.4229 0.0358804 70.5759 0.0274982L71.0327 0.0023511C71.3366 -0.0206999 71.6404 0.00235126 71.9464 -0.00812647C72.2523 -0.0186042 72.5541 0.023307 72.8579 0.0379758L73.7632 0.140657L74.6622 0.287345C74.6956 0.295928 74.7263 0.312619 74.7517 0.335937C74.7771 0.359255 74.7964 0.388481 74.8078 0.421023C74.8192 0.453565 74.8224 0.488417 74.8171 0.522489C74.8118 0.556561 74.7982 0.588799 74.7774 0.616346L74.0063 1.486L73.738 1.18005C73.8365 1.11299 73.9246 1.07108 74.0189 1.01869C74.1131 0.966303 74.2054 0.930678 74.2976 0.886672C74.3902 0.84319 74.4853 0.805399 74.5826 0.773512L74.8717 0.672926C74.9684 0.639599 75.0671 0.612304 75.1672 0.5912L75.4627 0.519951C75.5603 0.493159 75.6598 0.473548 75.7603 0.461276L76.062 0.42146L76.3617 0.381645C76.4618 0.369103 76.5625 0.362804 76.6634 0.362785L77.269 0.346021C77.3698 0.342187 77.4706 0.345689 77.5708 0.356499L77.8705 0.381645L78.4719 0.429843C78.4973 0.431657 78.522 0.438587 78.5446 0.450216C78.5673 0.461845 78.5873 0.477932 78.6036 0.497509C78.6198 0.517087 78.6319 0.53975 78.6392 0.564134C78.6465 0.588518 78.6487 0.61412 78.6458 0.639397V0.660353C78.6018 0.930679 78.5473 1.18424 78.4824 1.4399C78.4174 1.69555 78.3482 1.94911 78.2728 2.20058C78.2372 2.32631 78.1911 2.44995 78.1471 2.57359C78.1031 2.69722 78.0591 2.82296 78.0109 2.9445C77.9627 3.06604 77.9166 3.19177 77.8621 3.31122C77.8076 3.43066 77.7594 3.5543 77.7007 3.67165L77.5247 4.02789C77.466 4.14525 77.3948 4.2584 77.3319 4.37366C77.269 4.48891 77.1978 4.60207 77.1224 4.71314C77.0469 4.8242 76.9799 4.93527 76.9002 5.04214L76.6571 5.35857C76.5796 5.46754 76.4811 5.56812 76.3952 5.66033C76.3033 5.75986 76.2053 5.85364 76.1018 5.94113L75.8043 6.21145C75.769 6.24536 75.7217 6.26385 75.6727 6.26287C75.6238 6.26188 75.5773 6.24151 75.5434 6.20621C75.5095 6.17092 75.491 6.12361 75.4919 6.07468C75.4929 6.02575 75.5133 5.97922 75.5486 5.94532C75.8126 5.68128 76.0683 5.40048 76.326 5.12387C76.5838 4.84725 76.8248 4.55597 77.0742 4.27098L77.4451 3.85187C77.5645 3.70518 77.6777 3.5543 77.795 3.40552L78.4887 2.51072V2.49815C78.5156 2.4629 78.5555 2.4398 78.5995 2.43391C78.6435 2.42801 78.688 2.43981 78.7234 2.46671C78.7517 2.48999 78.7722 2.52146 78.782 2.55682C78.8811 2.94393 78.92 3.34397 78.8973 3.7429C78.8907 3.93869 78.8725 4.13392 78.8428 4.32756C78.8051 4.51825 78.7695 4.71314 78.715 4.89964C78.6055 5.27474 78.4565 5.6372 78.2707 5.98094C78.1701 6.14649 78.0863 6.32252 77.9711 6.47968L77.6274 6.94909C77.3786 7.24791 77.1083 7.52807 76.8185 7.7873L76.6089 7.98009C76.5395 8.04711 76.4645 8.1081 76.3847 8.16241L75.9195 8.50189C75.7652 8.61591 75.6035 8.71952 75.4354 8.81203L74.943 9.1075C74.5951 9.28981 74.2577 9.44069 73.912 9.60414L73.365 9.79484C73.1856 9.86395 73.0014 9.91998 72.8139 9.96248C72.4434 10.0581 72.0667 10.1281 71.6865 10.172C71.4958 10.1909 71.3072 10.2286 71.1144 10.2328L70.5423 10.2496C70.3515 10.2545 70.1605 10.2489 69.9703 10.2328C69.7796 10.216 69.5868 10.2202 69.4003 10.1867L68.8324 10.1071C68.6459 10.0735 68.4594 10.0295 68.2729 9.99182C68.0864 9.9541 67.904 9.89752 67.7196 9.84723L67.4451 9.77179L67.1769 9.67749C66.9967 9.61672 66.8165 9.55385 66.6425 9.46793C66.4686 9.38201 66.2905 9.32543 66.1186 9.24161C65.7729 9.08427 65.4382 8.90364 65.117 8.70096C65.444 8.89314 65.7836 9.06325 66.1333 9.21018C66.3051 9.28771 66.4833 9.35477 66.6614 9.41973C66.8395 9.4847 67.0176 9.54547 67.1978 9.60205L67.4682 9.68796L67.7427 9.75921C67.925 9.80532 68.1073 9.8577 68.2938 9.88914C68.4803 9.92057 68.6647 9.96039 68.8491 9.99182L69.4107 10.0568C69.5993 10.084 69.7879 10.0777 69.9765 10.0882C70.1643 10.0997 70.3525 10.0997 70.5402 10.0882L71.1039 10.0589C71.2904 10.0589 71.4749 10.0107 71.6614 9.98553C72.0332 9.93352 72.4008 9.85509 72.7615 9.75083C72.9426 9.70457 73.1204 9.64646 73.2938 9.5769L73.8177 9.38621C74.1551 9.22275 74.5092 9.05511 74.8298 8.88327L75.316 8.59199C75.4781 8.49742 75.6348 8.39388 75.7854 8.28185L76.2338 7.94447C76.3079 7.88944 76.3779 7.82922 76.4434 7.76425L76.653 7.57565C76.9277 7.32475 77.184 7.05442 77.4199 6.76677L77.7426 6.31413C77.8495 6.16326 77.927 5.99352 78.0213 5.83635C78.1918 5.50994 78.3274 5.16647 78.4258 4.81163C78.474 4.63351 78.5054 4.45329 78.5389 4.27307C78.563 4.09164 78.5777 3.90908 78.583 3.72614C78.5962 3.36551 78.5574 3.00485 78.4677 2.65531L78.7715 2.70351L78.0737 3.61717C77.9564 3.76805 77.8432 3.92312 77.7217 4.06981L77.3592 4.4952C77.1077 4.78439 76.8709 5.08405 76.6069 5.36066C76.3428 5.63727 76.0913 5.92436 75.821 6.19888L75.5737 5.92646L75.8504 5.6729C75.9398 5.58821 76.0238 5.49792 76.1018 5.40257C76.1836 5.30618 76.2758 5.22026 76.347 5.11758L76.5775 4.81792C76.653 4.71523 76.7158 4.60836 76.7871 4.50149C76.8584 4.39674 76.9241 4.28832 76.984 4.17668C77.0448 4.06561 77.1119 3.96712 77.1664 3.84558L77.3361 3.50401C77.3906 3.38875 77.4388 3.26931 77.4891 3.15405C77.5394 3.0388 77.5855 2.91935 77.6316 2.79991C77.6777 2.68046 77.7238 2.56311 77.7615 2.44157C77.7992 2.32003 77.8474 2.20058 77.8809 2.07694C77.9564 1.83386 78.0255 1.58868 78.0905 1.33931C78.1555 1.08994 78.2058 0.840569 78.2435 0.597486L78.4153 0.823805L77.8369 0.779799L77.5478 0.758843C77.4515 0.751524 77.3548 0.751524 77.2586 0.758843L76.6823 0.779799C76.5863 0.779054 76.4904 0.784654 76.3952 0.796563L76.1102 0.836379L75.8252 0.876194C75.7301 0.886559 75.6361 0.905496 75.5444 0.932774L75.2657 0.999831C75.1728 1.02025 75.0811 1.04614 74.9912 1.07737L74.7209 1.16957C74.6304 1.19794 74.5421 1.23296 74.4568 1.27435C74.373 1.31416 74.2829 1.34769 74.2012 1.3917C74.1194 1.4357 74.0335 1.47971 73.9686 1.52372C73.927 1.54431 73.8798 1.55056 73.8344 1.54148C73.7889 1.53239 73.7478 1.50849 73.7173 1.47352C73.6869 1.43854 73.6689 1.39446 73.6663 1.34819C73.6636 1.30191 73.6763 1.25604 73.7024 1.21777L74.4924 0.366976L74.6014 0.702263L73.7234 0.55348L72.8391 0.450799C72.5415 0.434034 72.246 0.408887 71.9505 0.400505C71.6551 0.392123 71.3575 0.385836 71.062 0.400505L70.6199 0.423556C70.4732 0.423556 70.3265 0.45499 70.1798 0.469658C69.8843 0.494805 69.5952 0.555575 69.306 0.605869C69.1614 0.631015 69.0189 0.675021 68.8764 0.706455C68.7347 0.73884 68.5948 0.778712 68.4573 0.825901C68.3169 0.872003 68.1765 0.911818 68.0382 0.962111L67.619 1.12347C67.3491 1.23873 67.0854 1.36813 66.829 1.51114L66.6362 1.61802L66.4518 1.73746C66.3282 1.81709 66.2025 1.89463 66.0872 1.98474C65.6088 2.32664 65.1721 2.7233 64.7859 3.16663C64.6895 3.27769 64.5931 3.38875 64.5051 3.5061C64.4171 3.62345 64.3269 3.73871 64.2452 3.86235C64.0755 4.10275 63.9195 4.35252 63.7779 4.61046C63.6365 4.8681 63.5092 5.13322 63.3965 5.40467C63.2799 5.67288 63.1839 5.9496 63.1094 6.23241C63.0981 6.27273 63.0719 6.30725 63.0361 6.32903C63.0004 6.35081 62.9577 6.35821 62.9166 6.34976C62.6106 6.2889 62.2959 6.28464 61.9883 6.33719C61.6734 6.38396 61.3687 6.48387 61.0872 6.63266C60.9459 6.70552 60.8094 6.78741 60.6786 6.87784C60.5529 6.97633 60.4271 7.08739 60.3098 7.18588C60.1924 7.28437 60.0793 7.4122 59.9787 7.53793C59.8781 7.66367 59.7691 7.7915 59.6853 7.92561L59.4317 8.34472C59.3542 8.48931 59.283 8.64229 59.2075 8.78898L59.153 8.90213C59.1443 8.91841 59.1366 8.93521 59.13 8.95243L59.109 9.00901L59.0252 9.23323C59.0001 9.30867 58.9833 9.3883 58.9623 9.46584C58.9411 9.54362 58.925 9.62272 58.9141 9.70263C58.8634 10.0241 58.8452 10.3498 58.8597 10.675C58.8784 11.0025 58.9169 11.3286 58.9749 11.6515C59.0294 11.9742 59.1111 12.2948 59.197 12.6133C59.283 12.9319 59.3898 13.242 59.5009 13.5584C59.612 13.8749 59.7335 14.1871 59.8634 14.4847C59.9934 14.7822 60.1317 15.0924 60.2721 15.392C60.5571 15.9914 60.8693 16.5802 61.1962 17.1586C61.5231 17.737 61.8731 18.3007 62.2419 18.8602Z" fill="#76413B"/>
  
    
    <path d="M73.2561 30.197C73.2561 30.197 77.0595 27.1144 83.4195 27.7054C87.9626 28.1245 96.2023 26.5256 96.2023 26.5256C96.2023 26.5256 93.4488 9.41125 95.2195 8.8224C95.2195 8.8224 96.1374 8.4934 96.3343 9.21427C96.3343 9.21427 97.0552 8.23146 97.644 9.01939C97.644 9.01939 98.432 8.1665 98.8909 8.95233C98.8909 8.95233 99.4818 7.8375 100.071 9.28133C100.66 10.7252 107.022 27.8353 103.677 32.1647C99.4001 37.699 80.207 39.5724 80.207 39.5724L73.2561 30.197Z" fill="#FFAC9D"/>
    <path d="M80.821 39.5076C82.1811 39.3525 85.6408 38.9208 89.5029 38.1203C89.3772 36.5529 89.2158 34.9896 88.9874 33.4347C88.6898 31.4041 87.5373 29.625 86.8017 27.7306C85.6751 27.8008 84.545 27.7924 83.4195 27.7055C81.9363 27.5631 80.4406 27.6209 78.9728 27.8773C79.8254 31.7128 80.4427 35.5968 80.821 39.5076Z" fill="#F29083"/>
    <path d="M101.349 12.8376C101.349 12.8376 101.584 13.4998 101.965 14.6691C102.347 15.8384 102.877 17.5127 103.401 19.5559C103.66 20.5764 103.927 21.6892 104.157 22.8773C104.409 24.1232 104.588 25.3827 104.694 26.6493C104.746 27.3199 104.763 27.9929 104.744 28.6652C104.731 29.3594 104.639 30.0498 104.469 30.7231C104.381 31.0669 104.255 31.4 104.094 31.7164C104.013 31.8773 103.919 32.0315 103.813 32.1774C103.7 32.3345 103.585 32.4477 103.47 32.586C103.411 32.651 103.359 32.7201 103.294 32.783L103.099 32.9653C102.965 33.0847 102.841 33.2189 102.699 33.3257C102.418 33.5353 102.141 33.7679 101.841 33.9544C100.656 34.7167 99.3909 35.349 98.0695 35.8404C96.7745 36.3412 95.4731 36.752 94.2011 37.0977C91.6592 37.8081 89.241 38.2754 87.1643 38.6421C86.127 38.8244 85.1693 38.969 84.3227 39.0864C83.4761 39.2037 82.7343 39.2959 82.1224 39.3714C80.9028 39.5139 80.2029 39.5809 80.2029 39.5809C80.2029 39.5809 80.9007 39.5055 82.1182 39.3358C83.3357 39.166 85.0687 38.8957 87.1475 38.5122C89.2263 38.1287 91.6236 37.6153 94.1529 36.9007C95.4103 36.5424 96.7116 36.1275 97.9941 35.6245C99.2966 35.1388 100.542 34.5128 101.709 33.7574C102.005 33.573 102.275 33.3572 102.548 33.1455C102.688 33.0407 102.801 32.915 102.931 32.8039L103.12 32.63C103.183 32.5713 103.237 32.5001 103.296 32.4351C103.765 31.9409 104.094 31.3314 104.251 30.6686C104.419 30.012 104.511 29.3385 104.526 28.6611C104.548 27.9965 104.534 27.3312 104.484 26.6682C104.384 25.4098 104.217 24.1577 103.983 22.9172C103.774 21.7332 103.518 20.6121 103.269 19.5978C102.768 17.5526 102.284 15.8656 101.927 14.69C101.571 13.5144 101.349 12.8376 101.349 12.8376Z" fill="#D15A5A"/>
    <path d="M83.4195 27.7055L84.2242 27.7369C84.4903 27.7369 84.7585 27.7369 85.0268 27.7369C85.295 27.7369 85.5611 27.7222 85.8294 27.7118C86.0976 27.7013 86.3637 27.6908 86.632 27.6698C86.9002 27.6489 87.1663 27.6405 87.4325 27.6175L88.233 27.5483C88.4991 27.5273 88.7652 27.4938 89.0314 27.4666C89.2975 27.4393 89.5657 27.41 89.8298 27.3765C90.8943 27.2507 91.956 27.1068 93.015 26.9448C94.0732 26.7834 95.1294 26.599 96.1814 26.4062L96.0871 26.5424C95.9404 25.6036 95.8126 24.6564 95.6805 23.726C95.6135 23.2566 95.5443 22.7872 95.4898 22.3157L95.3243 20.9033L95.1587 19.4909C95.1001 19.0194 95.0686 18.5458 95.0246 18.0743L94.7962 15.2391L95.1378 18.0618C95.1986 18.5312 95.2342 19.0048 95.3054 19.4721L95.5024 20.8803L95.6952 22.2885C95.7539 22.7579 95.8272 23.2273 95.9048 23.6946C96.0431 24.6313 96.1793 25.5701 96.3239 26.5047L96.3427 26.6179L96.2296 26.6409C95.7015 26.7436 95.1818 26.8358 94.6432 26.9217C94.1047 27.0077 93.5808 27.0915 93.0506 27.1669C92.5205 27.2424 91.9861 27.3178 91.4538 27.3765C90.9216 27.4351 90.3893 27.5106 89.8528 27.5588C89.5867 27.5881 89.3185 27.6112 89.0523 27.6321C88.7862 27.6531 88.5159 27.6803 88.2476 27.6971L87.445 27.7495C87.1768 27.7641 86.9086 27.7725 86.6403 27.7851C86.3721 27.7977 86.1018 27.7977 85.8336 27.7998C85.5653 27.8019 85.2971 27.7998 85.0289 27.7998C84.7606 27.7998 84.4903 27.7872 84.2221 27.7683L83.4195 27.7055Z" fill="#D15A5A"/>
    <path d="M93.386 11.9701C93.386 11.9701 93.189 15.5094 95.2866 14.9855C97.3843 14.4617 94.8927 11.6327 94.8927 11.6327L93.386 11.9701Z" fill="#FFAC9D"/>
    <path d="M103.445 9.14201L90.613 11.1124L90.9416 13.252L103.773 11.2816L103.445 9.14201Z" fill="#1E191A"/>
    <path d="M91.2554 7.26459L86.5889 7.98118C86.0524 8.06356 85.6842 8.56527 85.7666 9.10177L87.0506 17.4635C87.133 18 87.6347 18.3681 88.1712 18.2857L92.8378 17.5692C93.3743 17.4868 93.7424 16.9851 93.66 16.4486L92.376 8.08685C92.2936 7.55035 91.7919 7.18221 91.2554 7.26459Z" fill="#352C38"/>
    <path d="M106.571 4.88167L101.905 5.59825C101.368 5.68064 101 6.18234 101.082 6.71885L102.366 15.0806C102.449 15.6171 102.951 15.9852 103.487 15.9028L108.154 15.1862C108.69 15.1038 109.058 14.6021 108.976 14.0656L107.692 5.70392C107.609 5.16742 107.108 4.79928 106.571 4.88167Z" fill="#352C38"/>
    <path d="M95.0247 10.1344C95.0247 10.1344 95.6806 13.6088 96.4664 13.7387C97.2522 13.8686 96.3365 9.67543 96.3365 9.67543C96.3365 9.67543 96.7283 13.4118 97.7132 13.4118C98.6982 13.4118 97.6462 9.47845 97.6462 9.47845C97.6462 9.47845 97.8432 13.0178 98.761 13.0849C99.6789 13.1519 98.958 9.41139 98.958 9.41139C98.958 9.41139 99.4169 12.9529 100.205 13.0178C100.993 13.0828 100.073 9.28146 100.073 9.28146L98.2371 9.01114L95.0247 10.1344Z" fill="#FFAC9D"/>
    <path d="M95.0247 10.1343C95.1647 10.8058 95.3417 11.469 95.5548 12.1209C95.6592 12.446 95.7867 12.7632 95.9362 13.0702C96.0095 13.2196 96.0994 13.3602 96.2044 13.4893C96.2534 13.5513 96.3139 13.6032 96.3826 13.6423C96.4111 13.6589 96.4423 13.6702 96.4748 13.6758C96.4957 13.6779 96.5167 13.6779 96.5376 13.6758C96.5455 13.6689 96.5548 13.6639 96.5649 13.6611C96.6576 13.5412 96.707 13.3936 96.7053 13.242C96.7168 13.0739 96.7168 12.9051 96.7053 12.737C96.6906 12.3975 96.6529 12.058 96.6068 11.7186C96.5104 11.0417 96.3826 10.3669 96.2359 9.70056L96.4245 9.67122C96.5072 10.3556 96.631 11.0344 96.7954 11.7039C96.8774 12.0348 96.986 12.3586 97.1202 12.672C97.1853 12.8213 97.2683 12.962 97.3675 13.0912C97.4056 13.1471 97.4549 13.1946 97.5122 13.2307C97.5696 13.2667 97.6337 13.2906 97.7007 13.3007H97.7656C97.7887 13.3007 97.7845 13.3007 97.7971 13.286C97.8087 13.2833 97.8191 13.2766 97.8264 13.2672C97.8369 13.2567 97.8495 13.2525 97.8578 13.2378C97.9005 13.1808 97.9318 13.116 97.95 13.0471C97.991 12.8891 98.0114 12.7264 98.0108 12.5631C98.0117 12.2222 97.9865 11.8817 97.9354 11.5446C97.8325 10.8628 97.6925 10.187 97.5163 9.52034L97.7531 9.48053C97.7919 10.1268 97.871 10.7699 97.9899 11.4063C98.0487 11.7211 98.1321 12.0308 98.2392 12.3326C98.2934 12.4796 98.3637 12.6201 98.4488 12.7517C98.4799 12.8097 98.5228 12.8606 98.5748 12.901C98.6268 12.9414 98.6866 12.9705 98.7505 12.9864C98.7505 12.9864 98.8385 12.9864 98.8364 12.9864C98.8562 12.9768 98.8752 12.9656 98.893 12.9528C98.9388 12.9065 98.9738 12.8507 98.9957 12.7894C99.0479 12.6457 99.0803 12.4955 99.0921 12.343C99.1173 12.0236 99.1173 11.7027 99.0921 11.3833C99.0528 10.7287 98.9779 10.0767 98.8679 9.43023L99.0502 9.4009C99.1322 10.0449 99.2476 10.6842 99.396 11.3162C99.4696 11.6323 99.5641 11.9431 99.6789 12.2466C99.7352 12.3927 99.8054 12.533 99.8884 12.6658C99.92 12.7314 99.9647 12.7899 100.02 12.8375C100.075 12.8851 100.139 12.9208 100.209 12.9424C100.339 12.9612 100.419 12.802 100.44 12.6511C100.468 12.4928 100.482 12.3321 100.481 12.1712C100.476 11.8454 100.453 11.5201 100.412 11.1968C100.331 10.5493 100.215 9.90383 100.075 9.26469C100.234 9.89335 100.37 10.5409 100.469 11.1905C100.522 11.5151 100.555 11.8426 100.567 12.1712C100.575 12.3379 100.566 12.505 100.54 12.6699C100.528 12.7581 100.498 12.8428 100.452 12.9193C100.428 12.9642 100.392 13.0012 100.347 13.0262C100.323 13.0392 100.297 13.0484 100.27 13.0534C100.246 13.0551 100.222 13.0551 100.199 13.0534C100.109 13.0331 100.025 12.9935 99.9531 12.9374C99.8807 12.8813 99.8214 12.81 99.7794 12.7286C99.69 12.5867 99.6142 12.4365 99.5531 12.2802C99.4314 11.9728 99.3299 11.6578 99.2493 11.3372C99.0897 10.7084 98.9625 10.072 98.8679 9.43023L99.0481 9.4009C99.1767 10.0452 99.2655 10.6967 99.3142 11.3519C99.3404 11.6831 99.3404 12.016 99.3142 12.3472C99.3019 12.5206 99.2652 12.6913 99.2053 12.8544C99.1722 12.9475 99.1176 13.0315 99.046 13.0995C99.0013 13.1389 98.9483 13.1676 98.8909 13.1834C98.8666 13.1918 98.8412 13.1968 98.8155 13.198H98.7338C98.6375 13.1803 98.5463 13.1418 98.4663 13.0854C98.3864 13.029 98.3196 12.9559 98.2707 12.8711C98.177 12.7272 98.0996 12.5733 98.0401 12.4122C97.9281 12.0987 97.8398 11.7771 97.7761 11.4503C97.6505 10.804 97.5665 10.1502 97.5246 9.4931L97.7614 9.45538C97.9421 10.1316 98.0821 10.8181 98.1805 11.5111C98.2314 11.858 98.2552 12.2083 98.2518 12.5589C98.2529 12.743 98.2282 12.9264 98.1785 13.1037C98.1516 13.2031 98.1045 13.2959 98.0401 13.3761C98.0218 13.3983 98.0007 13.418 97.9773 13.4348C97.9546 13.457 97.9274 13.4741 97.8976 13.4851C97.8689 13.4984 97.8386 13.5082 97.8075 13.5145H97.7447C97.6384 13.5116 97.5343 13.4835 97.4411 13.4325C97.3478 13.3815 97.268 13.309 97.2082 13.2211C97.0982 13.0747 97.0061 12.9157 96.9337 12.7475C96.7971 12.4221 96.6864 12.0865 96.6026 11.7437C96.4367 11.0641 96.3183 10.3736 96.2485 9.67751L96.435 9.64817C96.5712 10.325 96.6885 11.0019 96.7723 11.6871C96.8143 12.0287 96.8478 12.3724 96.8583 12.7181C96.8642 12.893 96.8586 13.068 96.8415 13.242C96.8335 13.3313 96.8174 13.4197 96.7933 13.5061C96.7712 13.6049 96.7166 13.6934 96.6382 13.7575C96.6096 13.7721 96.5793 13.7834 96.5481 13.7911H96.4832C96.4307 13.7846 96.38 13.7675 96.3344 13.7408C96.2532 13.6927 96.182 13.6293 96.1248 13.5543C96.0181 13.4151 95.9281 13.2639 95.8566 13.1037C95.7146 12.7891 95.5949 12.4649 95.4983 12.1335C95.3043 11.4762 95.1462 10.8088 95.0247 10.1343Z" fill="#D15A5A"/>
    <path d="M59.2244 38.9167C59.2244 38.9167 63.3568 60.3521 66.1103 69.6018C66.1103 69.6018 84.5994 69.2099 93.4509 64.4887C93.4509 64.4887 86.1731 34.9834 80.4586 27.7056L77.508 28.0995C77.508 28.0995 78.4908 36.1632 72.7867 36.9511C67.0827 37.739 64.7231 30.2621 64.7231 30.2621L60.8044 30.8531L59.2244 38.9167Z" fill="#FC6A5A"/>
    <path d="M89.0461 57.3848C83.5453 56.184 78.0026 54.8052 73.4322 51.3769C69.1195 48.1413 65.2051 44.6355 61.9528 40.2935C61.1292 39.1934 60.3497 38.0513 59.6246 36.8736L59.2244 38.9167C59.2244 38.9167 63.3568 60.3521 66.1103 69.6018C66.1103 69.6018 84.5994 69.21 93.4509 64.4887C93.4509 64.4887 92.7971 61.8378 91.7284 57.9317C90.8315 57.7599 89.9325 57.5797 89.0461 57.3848Z" fill="#EF5448"/>
    <path d="M59.2244 38.9167L59.9976 42.7725L60.7918 46.6241L61.6028 50.4715L62.441 54.3126C62.5835 54.9518 62.7176 55.593 62.8601 56.2322L63.2981 58.1475L63.734 60.0649C63.8765 60.7041 64.0316 61.3411 64.1887 61.9781L64.656 63.8872C64.8132 64.5159 64.962 65.1613 65.1275 65.7941L66.1753 69.5829L66.1103 69.5368C68.4406 69.4655 70.7687 69.3084 73.0906 69.0967C75.4125 68.8851 77.7301 68.6043 80.0331 68.2417C82.3376 67.8868 84.6225 67.4154 86.8793 66.8293C87.1601 66.7518 87.4409 66.6785 87.7175 66.5988L88.5557 66.3495C89.1111 66.1734 89.6664 65.9995 90.2112 65.7962C90.4857 65.6977 90.7603 65.5993 91.0285 65.4882C91.2967 65.3771 91.5712 65.2786 91.8353 65.155C92.0993 65.0314 92.3675 64.9224 92.6274 64.7967L93.4069 64.4048L93.3587 64.5117C92.5624 61.3474 91.7095 58.1978 90.8231 55.0587C89.9367 51.9195 89.0084 48.793 88.0193 45.6853C87.5219 44.1304 87.0071 42.5825 86.4749 41.0415C86.2024 40.2746 85.9363 39.5034 85.6513 38.7364C85.3663 37.9695 85.0792 37.2109 84.7858 36.4502L84.3332 35.3144C84.1802 34.9372 84.0189 34.5621 83.8617 34.187C83.7045 33.8119 83.5348 33.4389 83.3714 33.068C83.2079 32.6971 83.034 32.3262 82.8579 31.9595L82.5981 31.4083L82.3173 30.8656L82.0386 30.3228L81.7389 29.7927C81.344 29.0825 80.9016 28.3999 80.4145 27.7495L80.4795 27.7767L77.529 28.1665L77.5897 28.0911C77.6358 28.5604 77.6568 29.0319 77.6526 29.5035C77.6526 29.975 77.6254 30.4465 77.5751 30.9159C77.4884 31.8576 77.2698 32.7824 76.9254 33.6631C76.7494 34.1051 76.5259 34.5266 76.2591 34.9205C75.9888 35.3128 75.665 35.6654 75.2972 35.9682C74.9276 36.2663 74.5132 36.504 74.0692 36.6723C73.6277 36.8476 73.1646 36.9625 72.6924 37.0139C72.2218 37.0684 71.7465 37.0684 71.2759 37.0139C70.8057 36.9494 70.3445 36.8313 69.9012 36.6619C69.4595 36.4826 69.038 36.2572 68.6439 35.9892C68.2559 35.7195 67.8939 35.4144 67.5625 35.0776C66.9022 34.4031 66.3311 33.6467 65.8631 32.827C65.627 32.4205 65.4097 32.0014 65.2113 31.5697C65.0134 31.1421 64.8385 30.7042 64.6875 30.2579L64.7273 30.283L60.8044 30.8761L60.8254 30.8572L59.2244 38.9167ZM59.2244 38.9167L60.7751 30.8488V30.83H60.8044L64.7357 30.2285H64.765L64.7755 30.2579C64.9278 30.7002 65.104 31.1339 65.3035 31.5571C65.5026 31.9762 65.7227 32.3953 65.9595 32.7977C66.428 33.6071 66.9976 34.3535 67.6548 35.0189C67.9825 35.3504 68.3402 35.6506 68.7235 35.9158C69.1082 36.1783 69.5198 36.3989 69.9515 36.5738C70.3851 36.7402 70.8366 36.8555 71.2968 36.9175C71.7599 36.9699 72.2273 36.9699 72.6904 36.9175C73.1511 36.8652 73.6028 36.7517 74.0336 36.5801C74.4662 36.4123 74.8694 36.1768 75.2281 35.8823C75.5841 35.5858 75.8985 35.2425 76.1627 34.8618C76.4233 34.4766 76.6412 34.0641 76.8123 33.6317C77.1489 32.7577 77.3605 31.8406 77.441 30.9075C77.4892 30.4444 77.5122 29.9771 77.5143 29.5098C77.5179 29.0437 77.4962 28.5778 77.4493 28.1141V28.045H77.5164L80.4669 27.6489H80.5088L80.534 27.6824C81.0265 28.3369 81.4746 29.0237 81.8751 29.7382L82.1769 30.2725L82.4598 30.8174L82.7406 31.3622L83.0067 31.9154C83.1849 32.2822 83.3588 32.651 83.5222 33.0261C83.6857 33.4012 83.8617 33.77 84.0168 34.1472C84.1719 34.5244 84.3374 34.8974 84.4904 35.2767L84.9472 36.4125C85.2427 37.1732 85.5402 37.9339 85.819 38.7008C86.0977 39.4678 86.3743 40.2369 86.6572 41.0059C87.1936 42.5427 87.7119 44.0906 88.2121 45.6497C89.2095 48.758 90.1511 51.8832 91.0369 55.0251C91.9226 58.167 92.7608 61.3208 93.5515 64.4865L93.5683 64.5599L93.5033 64.5934L92.7091 64.9622C92.4451 65.0879 92.1747 65.2032 91.9086 65.3226C91.6425 65.4421 91.3659 65.5448 91.0955 65.6558C90.8252 65.7669 90.5486 65.8654 90.2741 65.9639C89.7251 66.1734 89.1655 66.3411 88.6081 66.5171L87.7699 66.7665C87.4891 66.8461 87.2062 66.9194 86.9317 66.9949C84.6688 67.5791 82.3774 68.047 80.0667 68.3968C77.7616 68.7572 75.4397 69.0255 73.1136 69.235C70.7876 69.4446 68.4573 69.5955 66.1208 69.6541H66.0705L66.0579 69.6059L65.0227 65.8109C64.8572 65.1822 64.7105 64.5368 64.5533 63.8998L64.0902 61.9886C63.9331 61.36 63.7801 60.7166 63.6397 60.0754L63.208 58.158L62.7742 56.2384C62.6296 55.6098 62.4997 54.9581 62.3551 54.3168L61.5399 50.4694L60.7499 46.6178L59.9662 42.7767L59.2244 38.9167Z" fill="#A50000"/>
    <path d="M52.7914 75.9544L52.6615 78.1191L65.6434 78.898L65.7733 76.7333L52.7914 75.9544Z" fill="#1E191A"/>
    <path d="M48.0759 72.7553L47.6036 81.2018C47.5733 81.7437 47.9881 82.2076 48.53 82.2379L53.244 82.5015C53.7859 82.5318 54.2498 82.117 54.2801 81.5751L54.7523 73.1285C54.7826 72.5866 54.3679 72.1227 53.8259 72.0924L49.112 71.8289C48.5701 71.7986 48.1062 72.2133 48.0759 72.7553Z" fill="#352C38"/>
    <path d="M63.5551 73.5888L63.0829 82.0354C63.0526 82.5773 63.4673 83.0412 64.0093 83.0715L68.7232 83.335C69.2651 83.3653 69.729 82.9506 69.7593 82.4086L70.2316 73.9621C70.2619 73.4202 69.8471 72.9563 69.3052 72.926L64.5913 72.6624C64.0493 72.6321 63.5854 73.0469 63.5551 73.5888Z" fill="#352C38"/>
    <path d="M62.8999 30.656C62.8999 30.656 55.5655 29.8031 54.5743 35.1153C53.5831 40.4275 54.0986 85.6473 57.4054 80.5614C57.4054 80.5614 58.1933 81.1524 58.7822 80.5614C58.7822 80.5614 59.9641 81.5463 60.9469 80.3645C60.9469 80.3645 64.0106 43.9837 62.8999 30.656Z" fill="#FFAC9D"/>
    <path d="M60.5445 73.8263C60.5445 73.8263 63.5118 71.6679 63.319 76.2906L59.7985 76.1901L60.5445 73.8263Z" fill="#FFAC9D"/>
    <path d="M62.2985 61.2091L62.4934 57.391L62.6673 53.5729C62.7281 52.3009 62.7658 51.0268 62.814 49.7548C62.8622 48.4828 62.8999 47.2087 62.9376 45.9347C62.9544 45.306 62.9816 44.6627 62.99 44.0256L63.0236 42.1145C63.034 41.4858 63.0487 40.8425 63.0529 40.2054V38.2943C63.0529 37.6656 63.0529 37.0202 63.0529 36.3852L63.0068 34.4762L62.9837 33.5206L62.9272 32.5693L62.814 30.6644L62.8936 30.7461C61.7113 30.6421 60.5201 30.7077 59.3563 30.941C58.2038 31.1799 57.0659 31.6263 56.1879 32.4079C55.7482 32.7951 55.3881 33.2641 55.1275 33.7889C54.8731 34.3173 54.7061 34.8834 54.633 35.4653C54.4863 36.6409 54.4402 37.8396 54.3899 39.0277C54.3396 40.2159 54.3166 41.4146 54.2956 42.609C54.2746 43.8035 54.26 44.9979 54.2516 46.1945C54.2376 48.5834 54.2467 50.973 54.2788 53.3634C54.3459 58.1412 54.4884 62.9211 54.7503 67.6927C54.8886 70.0774 55.0584 72.4622 55.3203 74.8364C55.4523 76.0225 55.6074 77.2065 55.8358 78.3779C55.9422 78.9626 56.0929 79.5385 56.2864 80.1004C56.372 80.3779 56.5229 80.6309 56.7264 80.8381C56.7784 80.8787 56.841 80.9035 56.9066 80.9093C56.9723 80.9069 57.0361 80.8866 57.0911 80.8506C57.206 80.7644 57.3035 80.657 57.3781 80.5342L57.4033 80.4965L57.441 80.5237C57.5399 80.5936 57.6468 80.6513 57.7595 80.6956C57.873 80.7402 57.9923 80.7684 58.1137 80.7794C58.1729 80.7846 58.2326 80.7846 58.2918 80.7794C58.3216 80.7753 58.351 80.769 58.3798 80.7605C58.4096 80.7556 58.4385 80.7464 58.4657 80.7333L58.5496 80.6998L58.625 80.6516C58.675 80.6179 58.7219 80.5801 58.7654 80.5384L58.7926 80.5195L58.8136 80.5363C58.9718 80.6582 59.1478 80.755 59.3354 80.8234C59.3815 80.8423 59.4297 80.8527 59.4779 80.8674C59.5253 80.8811 59.5736 80.8916 59.6225 80.8988C59.6717 80.9068 59.7214 80.9117 59.7713 80.9135C59.8207 80.9187 59.8706 80.9187 59.92 80.9135C59.9693 80.9121 60.0184 80.9065 60.0667 80.8967C60.1149 80.8842 60.1652 80.8779 60.2113 80.8632L60.3517 80.8087C60.3976 80.7894 60.4418 80.7663 60.4838 80.7396C60.5277 80.7175 60.5691 80.6908 60.6074 80.6599L60.7268 80.5656C60.7645 80.5329 60.8002 80.4979 60.8337 80.4609L60.9364 80.3519V80.3645L61.3199 75.6495L60.9699 80.3749L60.863 80.486C60.8299 80.5254 60.7935 80.5619 60.7541 80.595L60.6346 80.6914C60.5952 80.7255 60.5515 80.7543 60.5047 80.7773C60.4619 80.8062 60.4162 80.8308 60.3685 80.8506L60.2239 80.9072C60.1757 80.924 60.1233 80.9324 60.073 80.9449C60.0226 80.9553 59.9715 80.9616 59.92 80.9638C59.8685 80.969 59.8165 80.969 59.765 80.9638C59.713 80.9621 59.6612 80.9572 59.6099 80.9491C59.5583 80.9417 59.5073 80.9312 59.4569 80.9177C59.4087 80.903 59.3563 80.8925 59.3081 80.8737C59.1128 80.8054 58.9296 80.7063 58.7654 80.5803H58.8115C58.7646 80.6255 58.7142 80.6668 58.6606 80.7039L58.5789 80.7563L58.4888 80.7962C58.4585 80.8094 58.4269 80.8192 58.3945 80.8255C58.3638 80.8355 58.3322 80.8425 58.3002 80.8464C58.2347 80.8528 58.1687 80.8528 58.1032 80.8464C58.039 80.8418 57.9752 80.832 57.9125 80.8171C57.8488 80.8037 57.7864 80.7847 57.726 80.7605C57.6054 80.715 57.4907 80.6552 57.3844 80.5824L57.4473 80.5698C57.3663 80.7034 57.2611 80.8206 57.1372 80.9156C57.0671 80.963 56.9849 80.9892 56.9004 80.991C56.8159 80.9865 56.7349 80.9566 56.6678 80.9051C56.4442 80.6907 56.2784 80.4233 56.1858 80.1277C55.9836 79.5616 55.8252 78.9808 55.7122 78.3905C55.4775 77.2149 55.3203 76.0288 55.182 74.8406C54.9117 72.4622 54.7357 70.0774 54.589 67.6906C54.3019 62.917 54.1489 58.137 54.0693 53.355C54.0288 50.9633 54.0113 48.5722 54.0169 46.1819C54.0169 43.7909 54.0525 41.3999 54.1531 39.0089C54.2076 37.8123 54.2579 36.6179 54.4108 35.4234C54.4892 34.8174 54.6647 34.228 54.9305 33.6778C55.2067 33.1311 55.5852 32.6424 56.0454 32.2382C56.9653 31.4251 58.1409 30.9808 59.3123 30.7357C59.9037 30.6157 60.5034 30.5414 61.1061 30.5135C61.7083 30.4825 62.312 30.4944 62.9125 30.5492H62.9879V30.6246L63.0969 32.5357L63.1493 33.4913L63.1681 34.4469L63.208 36.3601C63.2247 36.9888 63.208 37.6342 63.208 38.2712V40.1824C63.208 40.811 63.1849 41.4565 63.1723 42.0935L63.1325 44.0067C63.1325 44.6354 63.0927 45.2787 63.0738 45.9158L63.011 47.8269C62.9921 48.4556 62.9607 49.0989 62.9314 49.736C62.8685 51.008 62.8182 52.2821 62.7469 53.5541L62.5374 57.37L62.2985 61.2091Z" fill="#D15A5A"/>
   
 
   
  
    
    <path d="M0.815186 40.1005C1.05207 39.6229 1.34545 39.1755 1.68903 38.7678C2.02222 38.3487 2.37427 37.9547 2.7368 37.5628C3.45976 36.7854 4.21835 36.0373 4.9958 35.3101C6.55698 33.8642 8.18103 32.4874 9.87842 31.1987C10.7254 30.5505 11.6046 29.9455 12.5125 29.386C12.969 29.1021 13.4468 28.854 13.9417 28.6442C14.198 28.5306 14.4713 28.4598 14.7506 28.4346H14.8658C14.9035 28.4346 14.9434 28.4472 14.9832 28.4556L15.0817 28.487L15.1823 28.5247C15.3108 28.5773 15.4354 28.6389 15.5553 28.7092C16.0172 28.9918 16.4442 29.328 16.8273 29.7108C17.2127 30.0858 17.5686 30.4901 17.8918 30.92C18.0559 31.1363 18.2057 31.3631 18.3402 31.5989C18.4084 31.7203 18.4679 31.8464 18.5184 31.9761C18.5824 32.1215 18.6028 32.2824 18.577 32.4392C18.5644 32.492 18.5386 32.5407 18.5019 32.5806C18.4652 32.6206 18.419 32.6506 18.3675 32.6676C18.2858 32.6946 18.1989 32.7018 18.1139 32.6886C17.9698 32.6685 17.8289 32.6298 17.6948 32.5733C17.4432 32.4688 17.1995 32.3463 16.9656 32.2066L17.1269 32.0348C17.2906 32.2826 17.4403 32.5394 17.5754 32.8039C17.6456 32.939 17.7058 33.0791 17.7556 33.223C17.7823 33.3004 17.8005 33.3805 17.8101 33.4619C17.8158 33.5132 17.8115 33.5651 17.7975 33.6148C17.7881 33.6484 17.7717 33.6796 17.7493 33.7064C17.7269 33.7331 17.699 33.7548 17.6676 33.7699C17.5714 33.8045 17.4662 33.8045 17.37 33.7699C17.298 33.7443 17.228 33.7135 17.1604 33.6777C17.0267 33.6088 16.8972 33.5318 16.7728 33.4472C16.5255 33.2837 16.2908 33.1056 16.0582 32.9254L16.23 32.7808C16.362 33.0302 16.4836 33.2816 16.5926 33.5436C16.6484 33.6799 16.6946 33.8199 16.7309 33.9627C16.7526 34.0446 16.7597 34.1298 16.7518 34.2142C16.7452 34.2438 16.7353 34.2726 16.7225 34.3001C16.7035 34.3324 16.6756 34.3587 16.6422 34.3758C16.6088 34.3929 16.5712 34.4 16.5339 34.3965C16.5075 34.3962 16.4814 34.392 16.4563 34.3839C16.4154 34.3718 16.376 34.3549 16.339 34.3336C16.3052 34.3164 16.2723 34.2976 16.2405 34.277C16.1755 34.2372 16.1211 34.1911 16.0624 34.1492C15.9513 34.0591 15.8528 33.9669 15.7418 33.8705C15.5322 33.6798 15.3394 33.4807 15.1445 33.2816L15.3247 33.1706C15.4203 33.4479 15.4904 33.7334 15.5343 34.0235C15.5441 34.0992 15.5497 34.1755 15.5511 34.2519C15.5609 34.3322 15.5573 34.4137 15.5406 34.4929C15.5261 34.5426 15.4993 34.5879 15.4627 34.6245C15.426 34.6611 15.3808 34.6879 15.331 34.7024C15.2391 34.719 15.1443 34.7081 15.0586 34.671C14.9189 34.6073 14.7873 34.5271 14.6667 34.4321C14.5515 34.342 14.4404 34.2456 14.3336 34.1471C14.124 33.9501 13.9144 33.7406 13.7238 33.531L13.8642 33.5289C13.6127 33.9208 13.3528 34.3022 13.0846 34.6794C12.8164 35.0566 12.5461 35.4296 12.2653 35.7963C12.129 35.9828 11.9844 36.163 11.8461 36.3453C11.7078 36.5276 11.5591 36.7016 11.3998 36.8818C11.1127 37.2422 10.8088 37.5901 10.505 37.9296L10.0377 38.4409C9.88471 38.6127 9.71916 38.7762 9.5599 38.9417C9.40064 39.1073 9.24138 39.2749 9.07164 39.4321L8.5708 39.9119L8.0532 40.3709C7.88346 40.528 7.69906 40.6684 7.51884 40.813C7.33862 40.9576 7.1626 41.1064 6.9719 41.2321L6.4082 41.6345L6.96352 41.2154C7.15212 41.0834 7.32395 40.9283 7.50207 40.7816C7.6802 40.6349 7.85832 40.4903 8.02387 40.329L8.53099 39.8617L9.02135 39.3964C9.1848 39.2351 9.33987 39.0653 9.49703 38.8977C9.6542 38.7301 9.81346 38.5624 9.96434 38.3864L10.4191 37.8667L10.8612 37.3365C11.01 37.1626 11.1504 36.9803 11.295 36.8001C11.4396 36.6198 11.5821 36.4396 11.7141 36.2573C11.8461 36.075 11.9949 35.8927 12.1332 35.7062C12.4077 35.3353 12.676 34.9623 12.9358 34.583C13.1957 34.2037 13.4534 33.8202 13.6965 33.4325C13.7029 33.4221 13.7113 33.4131 13.7213 33.406C13.7312 33.3989 13.7424 33.3939 13.7543 33.3912C13.7662 33.3884 13.7785 33.3881 13.7905 33.3901C13.8025 33.3922 13.814 33.3966 13.8243 33.4032C13.8308 33.4069 13.8365 33.4119 13.8411 33.4178C14.0402 33.6274 14.2372 33.8265 14.4488 34.0172C14.5536 34.1115 14.6584 34.2016 14.7715 34.2854C14.8767 34.3696 14.9922 34.44 15.1152 34.495C15.1617 34.5164 15.2132 34.5243 15.264 34.518C15.2912 34.518 15.3122 34.4887 15.3289 34.4384C15.3543 34.3132 15.3543 34.1842 15.3289 34.0591C15.2838 33.7836 15.2137 33.5129 15.1194 33.2502C15.1144 33.2369 15.1121 33.2227 15.1127 33.2085C15.1133 33.1942 15.1167 33.1803 15.1228 33.1674C15.1288 33.1545 15.1374 33.143 15.148 33.1334C15.1585 33.1239 15.1709 33.1166 15.1843 33.1119C15.2037 33.105 15.2245 33.1037 15.2445 33.1082C15.2646 33.1126 15.2829 33.1226 15.2975 33.137C15.4924 33.334 15.6852 33.531 15.8885 33.7154C15.989 33.8076 16.098 33.8977 16.1965 33.9816C16.251 34.0193 16.3034 34.0633 16.3579 34.0968C16.4059 34.1299 16.458 34.1566 16.5129 34.1764C16.5339 34.1764 16.5527 34.1764 16.5381 34.1764C16.5234 34.1764 16.5234 34.1764 16.5276 34.189C16.5318 34.2016 16.5276 34.189 16.5276 34.1764C16.5305 34.122 16.5241 34.0674 16.5087 34.0151C16.4749 33.8863 16.4314 33.7602 16.3788 33.6379C16.2761 33.3864 16.1525 33.1391 16.0247 32.8982C16.0173 32.885 16.0127 32.8705 16.0111 32.8555C16.0094 32.8405 16.0108 32.8254 16.0151 32.8109C16.0194 32.7965 16.0265 32.783 16.0361 32.7714C16.0456 32.7597 16.0574 32.7501 16.0708 32.7431C16.0902 32.7329 16.1122 32.7284 16.1341 32.7303C16.156 32.7321 16.1769 32.7402 16.1944 32.7536C16.4249 32.9296 16.6554 33.1035 16.8964 33.2628C17.0142 33.3389 17.1359 33.4089 17.261 33.4723C17.32 33.5022 17.3809 33.5281 17.4433 33.5499C17.485 33.5643 17.5293 33.57 17.5733 33.5666C17.5733 33.5666 17.5733 33.5666 17.5733 33.5562C17.5759 33.5353 17.5759 33.5142 17.5733 33.4933C17.5641 33.4304 17.5487 33.3687 17.5272 33.3089C17.4806 33.1765 17.4246 33.0477 17.3595 32.9233C17.2277 32.6684 17.0822 32.4207 16.9236 32.1815C16.9147 32.1682 16.9086 32.1533 16.9056 32.1376C16.9025 32.1219 16.9027 32.1058 16.906 32.0901C16.9093 32.0745 16.9158 32.0597 16.9249 32.0466C16.9341 32.0335 16.9457 32.0223 16.9593 32.0138C16.9783 32.0026 17 31.9967 17.0221 31.9967C17.0443 31.9967 17.066 32.0026 17.085 32.0138C17.3087 32.1456 17.5411 32.2618 17.7807 32.3617C17.8936 32.4089 18.0118 32.4419 18.1328 32.4602C18.179 32.4704 18.2269 32.4704 18.2732 32.4602C18.3046 32.4476 18.3109 32.4371 18.3214 32.4015C18.3312 32.294 18.3132 32.1857 18.269 32.0872C18.2234 31.9689 18.1695 31.8541 18.1076 31.7435C17.9823 31.5173 17.8423 31.2996 17.6885 31.0918C17.3753 30.6704 17.0292 30.2745 16.6533 29.9078C16.2889 29.5311 15.8808 29.199 15.4379 28.9187C15.328 28.854 15.2139 28.7966 15.0963 28.7469L15.0104 28.7154L14.9203 28.6861L14.8407 28.6714H14.7548C14.5032 28.6926 14.2569 28.7549 14.0255 28.8558C13.5414 29.0597 13.0735 29.3 12.6257 29.5746C11.7204 30.1195 10.8549 30.7335 9.99996 31.3621C8.29629 32.6194 6.64709 33.9815 5.08381 35.4044C4.29589 36.119 3.52263 36.8462 2.77871 37.6089C2.4099 37.9903 2.04946 38.3822 1.70789 38.7887C1.35845 39.1884 1.05869 39.6288 0.815186 40.1005Z" fill="#E06244"/>
    <path d="M11.0582 34.3902C11.0582 34.3902 1.99497 40.373 2.90025 47.7137C3.80552 55.0544 9.6982 50.8863 7.15839 49.0737C5.09219 47.5963 -2.35748 50.7941 0.905286 56.7769C4.16805 62.7597 10.4212 54.0527 13.0595 58.4995C15.6977 62.9462 -2.16678 68.0153 9.70658 75.2638" stroke="#1C171E" stroke-width="0.87" stroke-linecap="round" stroke-linejoin="round"/>
   

  </g>
  <defs>
    <clipPath id="clip0_1_709">
      <rect width="150.909" height="96.7367" fill="white" transform="translate(0 0.000244141)"/>
    </clipPath>
  </defs>
</svg>
