<svg xmlns="http://www.w3.org/2000/svg" width="345.707" height="216" viewBox="0 0 155 97" fill="none">
  <g clip-path="url(#clip0_1_819)">
    
   
    
    
   
 

    <path d="M111.96 35.6952L129.19 39.3223L130.823 63.8069L112.685 59.2725L111.96 35.6952Z" fill="#0096C8"/>
    <path d="M111.96 35.6952L129.19 39.3223L130.823 63.8069L112.685 59.2725L111.96 35.6952Z" stroke="#1B4268" stroke-width="0.5" stroke-miterlimit="10"/>
    <path d="M150.979 33.469L134.392 39.3742L136.059 63.8566L153.424 56.9316L150.979 33.469Z" fill="#0096C8"/>
    <path d="M150.979 33.469L134.392 39.3742L136.059 63.8566L153.424 56.9316L150.979 33.469Z" stroke="#1B4268" stroke-width="0.5" stroke-miterlimit="10"/>
    <path d="M129.19 39.3222L134.996 39.1403L136.447 65.078C136.447 65.078 132.999 66.3469 129.916 64.8961L129.19 39.3222Z" fill="#0096C8"/>
    <path d="M129.19 39.3222L134.994 39.0884H135.043V39.1382L135.446 45.6193L135.84 52.1027L136.587 65.0693V65.1797L136.486 65.2165C136.217 65.309 135.943 65.3864 135.665 65.4483C135.39 65.5132 135.113 65.5652 134.835 65.6107L134.415 65.6648C134.275 65.6843 134.134 65.6908 133.982 65.7038C133.831 65.7168 133.701 65.7211 133.549 65.7254C133.398 65.7298 133.266 65.7363 133.116 65.7254C132.967 65.7146 132.835 65.7254 132.683 65.7254L132.25 65.6908C132.109 65.6908 131.971 65.6518 131.83 65.6345C131.689 65.6172 131.548 65.5933 131.412 65.5587L130.996 65.4634L130.591 65.3378L130.388 65.2729L130.191 65.1906L129.861 65.0217L129.786 64.9913V64.9026L129.615 58.508L129.463 52.1135L129.32 45.7189L129.19 39.3222ZM129.19 39.3222L129.428 45.7146L129.645 52.107L129.861 58.4994L130.052 64.8917L129.974 64.7726L130.353 64.9285L130.541 65.0065L130.738 65.0671L131.128 65.1884L131.529 65.2793C131.661 65.3118 131.797 65.3313 131.932 65.3508C132.066 65.3703 132.202 65.3963 132.339 65.4028L132.748 65.4353C132.887 65.4353 133.023 65.4353 133.159 65.4353C133.296 65.4353 133.434 65.4353 133.571 65.4353C133.707 65.4353 133.846 65.4353 133.982 65.4136C134.119 65.392 134.257 65.392 134.392 65.3746L134.801 65.3183C135.072 65.275 135.342 65.223 135.609 65.1581C135.874 65.0999 136.137 65.0277 136.395 64.9415L136.299 65.0888L135.596 52.1178L135.275 45.6302L134.955 39.1447L135.007 39.1923L129.19 39.3222Z" fill="#1B4268"/>
    <path d="M110.128 46.8449C110.128 46.8449 109.608 43.3802 110.691 42.8995C111.774 42.4187 119.502 45.3616 112.41 44.543C112.41 44.543 124.457 47.2152 112.772 46.1433C112.772 46.1433 122.423 47.8973 113.049 47.304C113.049 47.304 120.628 49.1229 112.605 48.2741L112.293 50.7427C112.293 50.7427 111.343 51.362 110.128 46.8449Z" fill="#FFAC9D"/>
    <path d="M110.128 46.845C110.046 46.3382 109.995 45.827 109.974 45.314C109.945 44.7985 109.98 44.2813 110.078 43.7744C110.125 43.5115 110.232 43.2631 110.392 43.049C110.479 42.9379 110.596 42.8544 110.73 42.8086C110.863 42.7759 111 42.7628 111.137 42.7696C111.655 42.8034 112.169 42.8927 112.668 43.036C113.166 43.1691 113.657 43.3296 114.138 43.5167C114.381 43.6099 114.619 43.7162 114.851 43.835C114.969 43.897 115.084 43.9657 115.195 44.0407C115.254 44.0803 115.309 44.1253 115.36 44.175C115.428 44.2361 115.475 44.3172 115.494 44.4067C115.498 44.4385 115.496 44.4707 115.487 44.5016C115.478 44.5325 115.464 44.5613 115.444 44.5864C115.414 44.626 115.375 44.6585 115.331 44.6817C115.263 44.7166 115.19 44.7421 115.115 44.7575C114.983 44.7848 114.849 44.8029 114.714 44.8117C114.45 44.8268 114.19 44.8246 113.932 44.8117C113.415 44.7943 112.902 44.7424 112.391 44.6861L112.441 44.3981C113.331 44.5973 114.216 44.8073 115.1 45.0347C115.533 45.1495 115.983 45.2686 116.423 45.4007C116.639 45.4656 116.856 45.5349 117.072 45.6172C117.295 45.6919 117.512 45.7816 117.722 45.8857C117.782 45.9165 117.839 45.9527 117.893 45.994L117.939 46.0351C117.957 46.0554 117.974 46.0771 117.988 46.1001C118.008 46.1369 118.02 46.1775 118.023 46.2192C118.023 46.2691 118.007 46.3178 117.978 46.3578C117.915 46.4292 117.83 46.4773 117.737 46.4942C117.67 46.5115 117.609 46.5202 117.549 46.531C117.316 46.557 117.082 46.5693 116.847 46.5678C116.386 46.5678 115.929 46.5505 115.472 46.5245C114.56 46.4682 113.653 46.3903 112.746 46.308L112.787 45.9961C113.502 46.1304 114.212 46.2733 114.92 46.4292C115.275 46.5072 115.63 46.5895 115.983 46.6804C116.159 46.7259 116.334 46.7757 116.512 46.8277C116.693 46.8799 116.87 46.945 117.042 47.0226C117.095 47.0469 117.145 47.0782 117.189 47.1157C117.236 47.1534 117.266 47.2077 117.274 47.2673C117.274 47.3043 117.264 47.3406 117.246 47.3728C117.228 47.4051 117.201 47.4321 117.17 47.4513C117.069 47.4992 116.96 47.5279 116.849 47.5358C116.659 47.5553 116.477 47.5596 116.293 47.5639C115.927 47.5639 115.563 47.5639 115.21 47.5423C114.483 47.512 113.759 47.4643 113.045 47.4123L113.075 47.1958C113.657 47.3452 114.233 47.5011 114.807 47.6744C115.093 47.761 115.379 47.8519 115.663 47.958C115.803 48.01 115.944 48.0663 116.083 48.1334C116.16 48.1659 116.233 48.2089 116.299 48.2612C116.32 48.2788 116.337 48.3001 116.349 48.324C116.361 48.3417 116.367 48.3624 116.367 48.3835C116.367 48.4047 116.361 48.4254 116.349 48.4431C116.314 48.4812 116.266 48.5064 116.215 48.5146C116.063 48.5426 115.908 48.5549 115.754 48.5514C115.602 48.5514 115.453 48.5514 115.303 48.5384C115.004 48.5211 114.706 48.4972 114.407 48.4712C113.811 48.4171 113.218 48.3435 112.625 48.2699C113.221 48.3218 113.817 48.3659 114.413 48.402C114.71 48.4193 115.009 48.4344 115.308 48.4409C115.455 48.4409 115.604 48.4409 115.741 48.4409C115.886 48.4418 116.031 48.4265 116.174 48.3955C116.196 48.3919 116.218 48.383 116.237 48.3695C116.237 48.3695 116.237 48.389 116.237 48.3846C116.237 48.3803 116.237 48.3716 116.217 48.363C116.161 48.3222 116.101 48.288 116.037 48.2612C115.903 48.2014 115.766 48.1487 115.626 48.1031C115.344 48.01 115.059 47.9277 114.773 47.8454C114.199 47.6852 113.619 47.5401 113.04 47.4123L113.073 47.1958C113.794 47.2348 114.517 47.2673 115.238 47.2846C115.6 47.2846 115.959 47.2846 116.321 47.2846C116.501 47.2846 116.678 47.2694 116.849 47.2478C116.919 47.2419 116.987 47.2266 117.053 47.2023C117.042 47.2121 117.034 47.2243 117.029 47.2378C117.023 47.2513 117.021 47.2658 117.023 47.2803C117.023 47.3322 117.044 47.3279 117.036 47.3236C117.009 47.3051 116.98 47.2884 116.951 47.2738C116.792 47.205 116.629 47.1471 116.462 47.1005C116.291 47.0507 116.117 47.0031 115.944 46.9598C115.596 46.871 115.245 46.793 114.892 46.7151C114.186 46.5635 113.476 46.4249 112.765 46.2971L112.809 45.9853C113.714 46.0633 114.619 46.1369 115.526 46.1867C115.979 46.2084 116.431 46.2257 116.88 46.2278C117.097 46.2284 117.313 46.2183 117.529 46.1975C117.579 46.1908 117.628 46.1814 117.677 46.1694C117.718 46.1694 117.767 46.1282 117.735 46.1586C117.735 46.1586 117.711 46.1954 117.72 46.2192C117.715 46.2318 117.715 46.2456 117.72 46.2582L117.703 46.243C117.665 46.2155 117.626 46.1902 117.586 46.1672C117.389 46.0707 117.187 45.9868 116.979 45.916C116.763 45.8424 116.546 45.7731 116.33 45.6995C115.897 45.5674 115.463 45.4461 115.03 45.3292C114.153 45.0982 113.271 44.8817 112.384 44.6796L112.434 44.3916C112.941 44.4522 113.447 44.502 113.95 44.5301C114.201 44.5467 114.452 44.5503 114.703 44.541C114.825 44.537 114.946 44.524 115.065 44.502C115.116 44.4917 115.165 44.4757 115.212 44.4543C115.225 44.4485 115.237 44.4405 115.247 44.4305C115.234 44.396 115.213 44.3649 115.186 44.3396C115.145 44.2995 115.101 44.2626 115.054 44.2291C114.954 44.1581 114.849 44.0938 114.74 44.0364C114.518 43.9163 114.29 43.8086 114.056 43.7138C113.586 43.52 113.106 43.353 112.618 43.2136C112.373 43.1443 112.127 43.0815 111.877 43.0295C111.632 42.9747 111.383 42.9378 111.133 42.9191C111.014 42.9098 110.894 42.9164 110.777 42.9385C110.665 42.9725 110.566 43.0388 110.492 43.1291C110.339 43.3244 110.234 43.5517 110.182 43.7939C110.072 44.2914 110.022 44.8003 110.035 45.3097C110.037 45.8228 110.069 46.3353 110.128 46.845Z" fill="#D15A5A"/>
    <path d="M154.764 42.7914C154.764 42.7914 155.414 39.3526 154.355 38.8264C153.296 38.3002 145.453 40.9442 152.573 40.4029C152.573 40.4029 140.431 42.6051 152.139 41.988C152.139 41.988 142.425 43.3652 151.819 43.1357C151.819 43.1357 144.175 44.6515 152.224 44.1231L152.44 46.6025C152.44 46.6025 153.369 47.2651 154.764 42.7914Z" fill="#FFAC9D"/>
    <path d="M154.764 42.7913C154.843 42.2856 154.893 41.7759 154.916 41.2646C154.948 40.7576 154.918 40.2486 154.827 39.7488C154.785 39.5048 154.688 39.2736 154.543 39.0732C154.472 38.9808 154.376 38.9109 154.266 38.8718C154.15 38.8443 154.032 38.8327 153.913 38.8372C153.661 38.8474 153.41 38.8749 153.162 38.9195C152.913 38.9606 152.664 39.0147 152.417 39.0754C151.922 39.196 151.435 39.3442 150.957 39.5193C150.721 39.6081 150.485 39.7033 150.262 39.8138C150.151 39.8675 150.044 39.9282 149.942 39.9957C149.894 40.027 149.85 40.0617 149.807 40.0996C149.778 40.1229 149.755 40.1535 149.74 40.1884L149.775 40.2144C149.821 40.2386 149.871 40.2561 149.922 40.2664C150.04 40.2938 150.159 40.3119 150.279 40.3205C150.53 40.34 150.782 40.3465 151.033 40.34C151.54 40.34 152.051 40.2988 152.56 40.2599L152.599 40.5522C151.706 40.7189 150.814 40.9008 149.929 41.0979C149.496 41.1975 149.045 41.3014 148.608 41.4184C148.391 41.4747 148.175 41.5353 147.958 41.6024C147.748 41.6612 147.542 41.7335 147.341 41.819C147.3 41.8396 147.26 41.8627 147.222 41.8883L147.205 41.9034C147.209 41.898 147.212 41.8917 147.214 41.885C147.216 41.8783 147.216 41.8713 147.215 41.8645C147.215 41.8406 147.202 41.8082 147.202 41.8038C147.202 41.7995 147.22 41.8038 147.261 41.8168C147.309 41.8316 147.358 41.8425 147.408 41.8493C147.623 41.8809 147.84 41.9004 148.058 41.9078C148.507 41.9208 148.959 41.9208 149.413 41.9078C150.318 41.8948 151.228 41.858 152.135 41.8146L152.166 42.1265C151.451 42.2282 150.736 42.343 150.026 42.4621C149.671 42.5249 149.316 42.592 148.965 42.6657C148.787 42.7025 148.614 42.7415 148.441 42.7869C148.272 42.8262 148.106 42.8775 147.945 42.9407C147.915 42.9526 147.886 42.9686 147.861 42.9883C147.861 42.9883 147.861 42.9883 147.874 42.945C147.877 42.9304 147.876 42.9151 147.871 42.9009C147.866 42.8867 147.857 42.8743 147.845 42.8649C147.911 42.8909 147.979 42.909 148.049 42.919C148.218 42.9472 148.396 42.9623 148.573 42.9753C148.93 42.9991 149.292 43.01 149.656 43.0165C150.377 43.0295 151.1 43.0165 151.821 43.0165L151.845 43.233C151.26 43.3456 150.676 43.469 150.095 43.6076C149.807 43.6769 149.517 43.7484 149.229 43.8242C149.088 43.8639 148.948 43.9109 148.811 43.9649C148.747 43.9889 148.685 44.0202 148.627 44.058L148.606 44.0797C148.606 44.0797 148.606 44.0667 148.606 44.0645C148.624 44.0784 148.644 44.0887 148.666 44.0949C148.808 44.1289 148.953 44.1492 149.099 44.1555C149.247 44.1663 149.396 44.1706 149.545 44.175C149.844 44.175 150.141 44.175 150.44 44.175C151.037 44.162 151.635 44.1411 152.233 44.1122C151.637 44.1642 151.042 44.214 150.442 44.2443C150.143 44.2594 149.844 44.2724 149.545 44.2768C149.396 44.2768 149.244 44.2768 149.095 44.2768C148.94 44.2762 148.787 44.2588 148.636 44.2248C148.585 44.215 148.538 44.1883 148.504 44.149C148.492 44.1309 148.486 44.1098 148.486 44.0884C148.486 44.0669 148.492 44.0458 148.504 44.0277C148.518 44.0049 148.535 43.9844 148.556 43.9671C148.623 43.9194 148.696 43.8794 148.772 43.848C148.915 43.7852 149.056 43.7354 149.205 43.6878C149.491 43.5946 149.779 43.5124 150.072 43.4387C150.654 43.2871 151.237 43.1529 151.823 43.0295L151.847 43.246C151.122 43.2698 150.399 43.2893 149.671 43.2915C149.307 43.2915 148.946 43.2915 148.588 43.2698C148.404 43.259 148.222 43.2482 148.032 43.22C147.921 43.2076 147.814 43.1746 147.716 43.1226C147.685 43.1024 147.66 43.0747 147.643 43.0421C147.626 43.0095 147.617 42.9731 147.618 42.9363C147.622 42.9065 147.632 42.8778 147.648 42.852C147.663 42.8263 147.684 42.8041 147.709 42.7869C147.755 42.7515 147.805 42.7224 147.858 42.7003C148.034 42.6292 148.214 42.5713 148.398 42.5271C148.575 42.4794 148.755 42.4383 148.933 42.3993C149.288 42.3214 149.645 42.2542 150.002 42.1828C150.717 42.0528 151.434 41.9352 152.153 41.8298L152.183 42.1438C151.271 42.1936 150.362 42.2369 149.448 42.2564C148.991 42.2564 148.534 42.2694 148.073 42.2564C147.839 42.2473 147.605 42.2257 147.373 42.1914C147.313 42.1784 147.252 42.1676 147.187 42.1481C147.094 42.1263 147.012 42.0746 146.951 42.0009C146.923 41.9595 146.908 41.9102 146.91 41.8601C146.915 41.8187 146.929 41.7789 146.951 41.7432C146.967 41.7209 146.984 41.6999 147.003 41.6804L147.051 41.6414C147.105 41.6021 147.163 41.568 147.224 41.5396C147.439 41.4424 147.662 41.3614 147.889 41.2971C148.105 41.23 148.322 41.1693 148.554 41.113C148.987 40.9983 149.441 40.8965 149.887 40.7991C150.78 40.6042 151.674 40.4288 152.573 40.2664L152.609 40.5544C152.096 40.5912 151.581 40.6237 151.063 40.6215C150.806 40.6215 150.546 40.6215 150.284 40.5868C150.149 40.5739 150.015 40.5508 149.883 40.5175C149.807 40.5002 149.734 40.4718 149.667 40.4331C149.623 40.4087 149.585 40.3746 149.556 40.3335C149.52 40.2804 149.505 40.2153 149.515 40.1516C149.539 40.0665 149.589 39.9909 149.658 39.935C149.711 39.8878 149.769 39.8451 149.829 39.8073C149.942 39.7362 150.059 39.6726 150.18 39.6167C150.415 39.5068 150.657 39.41 150.903 39.3266C151.391 39.1542 151.889 39.0096 152.393 38.8935C152.897 38.7667 153.413 38.6941 153.933 38.6769C154.069 38.6763 154.206 38.6952 154.337 38.7332C154.469 38.7849 154.583 38.8727 154.667 38.9866C154.817 39.2067 154.915 39.4587 154.952 39.7228C155.03 40.2338 155.044 40.7523 154.996 41.2668C154.949 41.7791 154.872 42.2882 154.764 42.7913Z" fill="#D15A5A"/>
    <path d="M67.4903 66.572L64.6514 96.6369H92.5856L94.004 67.2887L67.4903 66.572Z" fill="#FDDEC0"/>
    <path d="M93.6012 75.6192L94.0039 67.2887L67.4903 66.572L66.6674 75.2836L93.6012 75.6192Z" fill="#EFC8A8"/>
    <path d="M79.1599 88.2027L78.5211 96.6371H92.5856L93.0425 87.1612L79.1599 88.2027Z" fill="#EFC8A8"/>
    <path d="M90.8056 87.2693L84.9871 87.7999L82.0789 88.0641C81.1088 88.1528 80.13 88.2438 79.1685 88.3044L79.2617 88.2113L78.612 96.6435L78.4431 96.6305L79.0646 88.1853V88.0987H79.1512C80.1213 88.0056 81.1001 87.9385 82.0637 87.8822L84.9784 87.6808L90.8056 87.2693Z" fill="#C98D61"/>
    <path d="M93.664 73.1723L92.5856 96.637" stroke="#C98D61" stroke-width="0.6" stroke-miterlimit="10"/>
    <path d="M66.7692 72.5228L64.6514 96.6371" stroke="#C98D61" stroke-width="0.6" stroke-miterlimit="10"/>
    <path d="M68.7636 30.7558L74.3071 30.2231C74.3071 30.2231 72.4838 4.23783 73.8502 3.42579C75.2166 2.61375 84.777 3.15727 86.2777 7.47949C86.9273 9.38508 90.7796 26.3188 82.5964 28.0295L82.6787 30.6714C82.6787 30.6714 85.784 30.5631 88.3565 30.5739C90.929 30.5847 87.2738 37.1893 78.6337 36.4942C69.9936 35.7991 68.7636 30.7558 68.7636 30.7558Z" fill="#FFAC9D"/>
    <path d="M88.3543 30.5739C85.7818 30.5739 82.6765 30.6713 82.6765 30.6713L82.5943 28.0295C77.1633 27.9623 74.7987 23.3781 73.6986 19.3677C73.926 24.9069 74.3071 30.2296 74.3071 30.2296L68.7636 30.7623C68.7636 30.7623 69.9936 35.8034 78.6315 36.5007C87.2694 37.1979 90.9269 30.5912 88.3543 30.5739Z" fill="#F29083"/>
    <path d="M73.8762 15.8423C73.8762 15.8423 72.2954 13.6249 71.1975 15.916C69.7878 18.8631 72.7133 21.9294 74.6947 19.6817C76.6761 17.4339 73.8762 15.8423 73.8762 15.8423Z" fill="#FFAC9D"/>
    <path d="M73.7766 21.3122L73.9108 23.5405C73.9542 24.2832 73.9975 25.026 74.0538 25.7666L74.2097 27.9926C74.2681 28.7354 74.3201 29.4759 74.3851 30.2165V30.2902H74.3115L68.7701 30.8445L68.8567 30.7232C69.0595 31.3379 69.368 31.9124 69.7684 32.4209C70.165 32.9388 70.6247 33.4051 71.1369 33.809C72.1755 34.6088 73.3489 35.216 74.6016 35.602C75.2266 35.7977 75.8621 35.9582 76.505 36.0827C77.1547 36.2018 77.8043 36.2992 78.4539 36.3512C79.7587 36.4829 81.0754 36.434 82.3669 36.2061C83.661 35.9815 84.9065 35.5346 86.0481 34.8852C86.615 34.5612 87.1444 34.1755 87.6268 33.7354C88.1129 33.3031 88.5209 32.7904 88.8329 32.2196C88.9866 31.9413 89.0755 31.6319 89.0928 31.3144C89.1003 31.161 89.0586 31.0093 88.9737 30.8813C88.8817 30.7664 88.7507 30.6893 88.6055 30.6648C88.4482 30.6379 88.2886 30.6277 88.1291 30.6345H87.6354H86.6458C85.3249 30.6345 84.0054 30.6525 82.6874 30.6886H82.6549V30.6626L82.5055 28.0229H82.6939V30.6648L82.6679 30.641C83.9874 30.5875 85.3068 30.5471 86.6263 30.5197L87.6159 30.5067H88.1118C88.2819 30.4951 88.4527 30.5039 88.6207 30.5327C88.8044 30.564 88.9702 30.6619 89.0863 30.8077C89.19 30.9576 89.2438 31.1365 89.24 31.3187C89.2281 31.6629 89.1362 31.9995 88.9715 32.3018C88.6577 32.8958 88.2422 33.4301 87.7437 33.8805C87.2551 34.3353 86.7177 34.7348 86.1413 35.0714C84.9855 35.7417 83.7213 36.2042 82.4059 36.4378C81.0949 36.6732 79.7578 36.7264 78.4323 36.5959C77.7697 36.5382 77.1121 36.4487 76.4596 36.3274C75.8062 36.2037 75.1611 36.0395 74.528 35.8358C73.2531 35.4355 72.06 34.8107 71.0048 33.9909C70.4812 33.5742 70.0114 33.0941 69.6059 32.5617C69.1913 32.0285 68.8732 31.4268 68.6661 30.7839L68.6337 30.6734H68.7528L74.2985 30.1581L74.2313 30.2382C74.175 29.4954 74.1317 28.7527 74.0819 28.0099C74.0321 27.2672 73.9996 26.5245 73.9607 25.7817C73.9217 25.039 73.8914 24.2941 73.861 23.5513L73.7766 21.3122Z" fill="#D15A5A"/>
    <path d="M71.1196 4.59076C71.1196 4.59076 69.7749 -1.18663 66.5505 0.424457C63.3262 2.03554 67.4968 5.79908 67.4968 5.79908C67.4968 5.79908 66.8255 1.09791 64.9438 4.59076C63.062 8.08362 70.0434 9.02342 71.1196 4.59076Z" fill="#76413B"/>
    <path d="M66.5505 0.424457C65.0347 1.18669 65.1538 2.42749 65.7103 3.52537C65.3918 3.83212 65.1301 4.19281 64.9373 4.59076C63.0577 8.08362 70.0434 9.02342 71.1196 4.59076C71.1196 4.59076 69.7749 -1.18663 66.5505 0.424457Z" stroke="#54201C" stroke-width="1.3" stroke-linecap="round" stroke-linejoin="round"/>
    <path d="M87.7328 17.2196C87.7328 17.2196 87.9126 21.2495 86.8385 21.8775C85.7644 22.5054 88.1811 18.3846 84.9567 18.3846C81.7324 18.3846 78.5968 17.4427 78.1508 19.1447C77.7047 20.8467 78.3673 23.1313 76.3145 20.8922C75.1235 19.5929 74.8896 15.0715 74.9048 11.4812C75.7709 10.9745 76.8298 9.79432 76.269 7.09835C76.269 7.09835 81.1954 3.33698 86.2777 7.47947C86.2777 7.47947 85.7623 0.983149 76.9858 1.1867C69.1902 1.36643 67.0421 10.2339 71.4314 15.3378C71.4314 15.3378 72.6895 14.4262 73.5773 15.4093C73.4344 19.1339 73.9 27.3625 80.7016 28.1854C90.8554 29.4284 88.5405 22.0572 87.7328 17.2196Z" fill="#965450"/>
    <path d="M86.2777 7.47949C86.2777 7.47949 86.2647 7.35606 86.217 7.13085C86.1467 6.80512 86.0519 6.48516 85.9334 6.17373C85.7526 5.69057 85.5179 5.22932 85.2339 4.79867C84.8683 4.24058 84.4241 3.73808 83.9152 3.30669C83.6244 3.06205 83.3161 2.83913 82.9927 2.63973C82.6454 2.43265 82.2835 2.251 81.91 2.09621C81.0931 1.77422 80.239 1.55597 79.3677 1.44657C78.4348 1.3222 77.4919 1.29028 76.5527 1.35129C75.5861 1.40436 74.6362 1.62643 73.7463 2.00742C72.8639 2.39612 72.0681 2.95711 71.4054 3.65749C70.7695 4.34514 70.2652 5.14371 69.9178 6.01349C69.5951 6.82943 69.393 7.68801 69.3179 8.56221C69.2508 9.34794 69.285 10.139 69.4197 10.916C69.5374 11.574 69.7194 12.2188 69.9632 12.8411C70.0217 12.9775 70.078 13.1118 70.13 13.2417C70.1819 13.3717 70.2512 13.4864 70.3097 13.6034C70.4158 13.8394 70.5501 14.0364 70.654 14.2248C70.8257 14.5104 71.0136 14.7859 71.217 15.0499L71.4336 15.3292L71.2062 15.0585C70.9909 14.8024 70.7913 14.5333 70.6085 14.253C70.4981 14.0689 70.3595 13.8719 70.2426 13.638L70.0499 13.2785C69.9936 13.1508 69.9329 13.0187 69.8701 12.8801C69.2776 11.5171 69.0185 10.0324 69.1144 8.54922C69.1716 7.64994 69.3666 6.76479 69.6926 5.9247C70.0442 5.02464 70.558 4.19673 71.2084 3.48209C71.8914 2.74856 72.7146 2.15949 73.6293 1.74974C74.5476 1.3573 75.5274 1.12864 76.5245 1.07412C77.4816 1.01752 78.4419 1.05524 79.3916 1.18672C80.2823 1.30771 81.1527 1.54807 81.9793 1.90132C82.3616 2.06567 82.7308 2.25896 83.0836 2.47949C83.4109 2.68927 83.7221 2.92306 84.0148 3.17893C84.5244 3.62809 84.9626 4.15238 85.314 4.73371C85.5864 5.17886 85.8079 5.65318 85.9745 6.14774C86.0838 6.46379 86.1671 6.78824 86.2235 7.11786C86.248 7.23736 86.266 7.35807 86.2777 7.47949Z" fill="#54201C"/>
    <path d="M73.5774 15.4092C73.5774 15.4092 73.5774 15.537 73.5774 15.7817C73.5774 16.0264 73.5774 16.3815 73.5774 16.8341C73.5774 17.0615 73.5925 17.3105 73.6012 17.5833C73.6099 17.8562 73.6315 18.1528 73.664 18.4668C73.7212 19.17 73.8195 19.8692 73.9585 20.5608C74.1135 21.3789 74.3425 22.1813 74.6428 22.958C74.8083 23.3805 74.9992 23.7927 75.2144 24.1923C75.4428 24.6046 75.702 24.9991 75.9897 25.3724C76.5923 26.1536 77.3493 26.8022 78.2136 27.278C79.1142 27.7548 80.1051 28.0367 81.1218 28.1052C82.1372 28.2167 83.1618 28.2167 84.1772 28.1052C85.1711 27.9839 86.1434 27.6851 86.884 27.0961C87.5924 26.5153 88.0782 25.7074 88.2591 24.8094C88.435 23.9999 88.4962 23.1696 88.441 22.343C88.4041 21.5699 88.3067 20.864 88.2244 20.2403C88.1421 19.6167 88.0447 19.071 87.9711 18.6227C87.8216 17.7284 87.7545 17.2152 87.7545 17.2152C87.7545 17.2152 87.8498 17.7241 88.036 18.6141C88.127 19.0472 88.2374 19.5972 88.3522 20.2208C88.4805 20.9193 88.5723 21.6241 88.6272 22.3321C88.7016 23.1772 88.6571 24.0286 88.4951 24.8614C88.3996 25.3211 88.2345 25.7636 88.0057 26.1736C87.7638 26.6051 87.4411 26.986 87.0551 27.2953C86.2669 27.9298 85.2448 28.2481 84.2227 28.378C83.1853 28.4917 82.1382 28.4852 81.1023 28.3586C80.0543 28.2829 79.034 27.9878 78.1075 27.4924C77.2145 27.0007 76.437 26.3236 75.8273 25.5067C75.5381 25.1199 75.2789 24.7116 75.052 24.2854C74.8384 23.8766 74.6503 23.455 74.489 23.0229C74.1983 22.2325 73.9808 21.417 73.8394 20.5868C73.7172 19.8869 73.6362 19.1805 73.5969 18.4712C73.573 18.1572 73.5709 17.8605 73.56 17.5855C73.5492 17.3105 73.56 17.0615 73.56 16.8341C73.56 16.3794 73.5752 16.0242 73.5904 15.7817C73.6055 15.5392 73.5774 15.4092 73.5774 15.4092Z" fill="#54201C"/>
    <path d="M83.1204 12.3387C83.1941 12.5661 83.2569 12.7978 83.324 13.0274C83.3911 13.2569 83.4496 13.4886 83.5124 13.7181C83.6308 14.1815 83.7441 14.6457 83.8524 15.1105C84.0689 16.0395 84.2573 16.975 84.424 17.9256L84.4414 18.0295L84.3418 18.0403C83.9087 18.0815 83.4756 18.1226 83.0425 18.1573C82.6094 18.1919 82.1763 18.2309 81.7432 18.2591C82.1763 18.1811 82.6094 18.1161 83.0425 18.0425C83.4756 17.9689 83.9087 17.9104 84.3418 17.8476L84.2616 17.9624C84.0234 17.0377 83.8134 16.1066 83.6228 15.1711C83.5304 14.7034 83.4424 14.2342 83.3586 13.7636C83.3197 13.5276 83.2785 13.2915 83.2439 13.0555C83.2092 12.8195 83.1486 12.5769 83.1204 12.3387Z" fill="#D15A5A"/>
    <path d="M73.5124 19.6904C73.3734 19.6533 73.2379 19.6041 73.1075 19.5432C72.9695 19.4845 72.8421 19.4032 72.7307 19.3028C72.6658 19.2432 72.6237 19.1628 72.6116 19.0754C72.6088 19.0262 72.6185 18.977 72.6398 18.9325C72.6589 18.8919 72.6853 18.8552 72.7177 18.8242C72.8333 18.7185 72.9698 18.6381 73.1183 18.5882L73.0512 18.664C73.1207 18.2265 73.1504 17.7837 73.14 17.3409C73.1324 17.1256 73.1034 16.9116 73.0534 16.7021C73.0121 16.5055 72.9125 16.3258 72.7675 16.1867C72.7328 16.1559 72.6942 16.1297 72.6528 16.1088L72.6224 16.0936C72.6051 16.0936 72.6224 16.0936 72.6224 16.0936H72.603C72.5774 16.0843 72.5514 16.0763 72.525 16.0698C72.4379 16.0449 72.345 16.0495 72.2608 16.0828C72.0808 16.1793 71.9366 16.3311 71.8494 16.5159C71.7437 16.7103 71.656 16.914 71.5874 17.1244C71.5157 17.3377 71.455 17.5545 71.4055 17.774C71.4146 17.5462 71.4421 17.3195 71.4877 17.0962C71.5294 16.8681 71.5977 16.6457 71.6913 16.4336C71.7406 16.3237 71.8024 16.2198 71.8754 16.1239C71.9538 16.0206 72.0544 15.9363 72.1699 15.8771C72.2977 15.8179 72.4414 15.802 72.5791 15.8316C72.6077 15.838 72.6359 15.8459 72.6636 15.8554H72.6831L72.7134 15.8684L72.761 15.8879C72.821 15.9163 72.8776 15.9511 72.9299 15.9918C73.1195 16.1647 73.2518 16.3914 73.3089 16.6415C73.3669 16.8709 73.3975 17.1064 73.3998 17.3431C73.4056 17.8043 73.3554 18.2646 73.2504 18.7138L73.2353 18.7723L73.1833 18.7896C73.0576 18.8243 72.9388 18.8808 72.8325 18.9563C72.8124 18.9702 72.7954 18.9882 72.7827 19.0091C72.77 19.03 72.7619 19.0533 72.7589 19.0776C72.7642 19.133 72.787 19.1853 72.8238 19.227C72.9133 19.3317 73.0194 19.4209 73.1378 19.4912C73.259 19.5643 73.384 19.6309 73.5124 19.6904Z" fill="#D15A5A"/>
    
   
    
  
    <path d="M92.5704 45.0758C92.5704 45.0758 96.3318 61.7367 101.169 60.8402C106.007 59.9437 98.3024 38.2677 98.3024 38.2677L92.5704 45.0758Z" fill="#F29083"/>
    <path d="M84.8203 29.9827C84.8203 29.9827 92.4795 28.1031 96.3751 32.7978C100.271 37.4924 101.078 44.3526 101.078 44.3526L92.748 47.1676L84.8203 29.9827Z" fill="#0096C8"/>
    <path d="M90.3616 41.4183L90.1624 41.5699L92.7501 47.1806L101.081 44.3655C101.081 44.3655 100.526 39.6708 98.1247 35.3854C95.5955 37.4534 92.9753 39.4218 90.3616 41.4183Z" fill="#558AB5"/>
    <path d="M104.153 15.5284C104.153 15.5284 102.666 10.0195 106.763 8.1356C106.763 8.1356 108.027 13.2114 104.153 15.5284Z" fill="#965450"/>
    <path d="M106.815 11.6003C107.023 10.453 107.005 9.27615 106.763 8.1356C106.017 8.46575 105.374 8.98907 104.898 9.65141C105.535 10.3097 106.169 10.9593 106.815 11.6003Z" fill="#FC6A5A"/>
    <path d="M103.954 15.1321C103.222 15.8727 102.029 18.4474 100.171 24.11C97.8129 31.3058 95.2707 40.7688 95.8965 40.9658C96.5223 41.1629 100.082 32.0529 102.443 24.8549C104.192 19.5301 104.794 16.7519 104.736 15.5847C104.472 15.4331 104.212 15.288 103.954 15.1321Z" fill="#FC6A5A"/>
    <path d="M103.954 15.1321C103.439 15.654 102.694 17.081 101.65 19.8636C102.343 20.1523 103.032 20.4411 103.718 20.7298C104.493 18.0078 104.777 16.3989 104.736 15.5804C104.472 15.4331 104.212 15.288 103.954 15.1321Z" fill="#FDDEC0"/>
    <path d="M100.812 23.0425C100.812 23.0425 104.753 22.5033 105.647 24.4738C106.542 26.4444 107.618 59.7705 102.243 60.8402C98.0685 61.6761 93.6466 57.0788 99.7359 30.7406C99.7359 30.7406 97.0485 30.0238 98.1248 28.77C98.1248 28.77 96.6912 27.3365 98.6618 26.7995C98.6618 26.7995 97.5791 25.366 99.3786 25.1862C99.3786 25.1906 97.5964 23.3998 100.812 23.0425Z" fill="#FFAC9D"/>
    <path d="M102.243 60.8402C101.902 60.9123 101.553 60.9435 101.204 60.9333H101.072L100.942 60.916L100.68 60.8835C100.508 60.8501 100.339 60.8037 100.173 60.7449C99.5076 60.5021 98.9278 60.0692 98.5059 59.4998C98.0818 58.9365 97.75 58.3094 97.5228 57.6419C97.2892 56.9798 97.1132 56.2987 96.9966 55.6064C96.9663 55.4353 96.9316 55.2621 96.9078 55.0888L96.8407 54.5691C96.7887 54.2205 96.7649 53.8718 96.7346 53.5232C96.7043 53.1746 96.6913 52.8238 96.6718 52.4751C96.6523 52.1265 96.6501 51.7757 96.6458 51.4249C96.6415 51.0741 96.6458 50.7255 96.6458 50.3768C96.6458 50.0282 96.6458 49.6752 96.6739 49.3266L96.7281 48.2785C96.7497 47.9299 96.7822 47.5812 96.806 47.2326C96.8537 46.5353 96.9381 45.8424 97.0052 45.1451C97.0724 44.4479 97.1677 43.7571 97.2629 43.0663C97.3582 42.3755 97.4513 41.6804 97.5683 40.9918C97.6852 40.3032 97.7848 39.6124 97.9147 38.9238C98.0447 38.2352 98.1594 37.5488 98.298 36.8645C98.4366 36.1802 98.5644 35.4938 98.7138 34.8117C98.8632 34.1295 98.9996 33.4431 99.1469 32.7631L99.6103 30.7211L99.6947 30.8619C99.4397 30.7884 99.19 30.6973 98.9477 30.589C98.7014 30.4833 98.4682 30.3497 98.2525 30.1906C98.1421 30.1065 98.0418 30.0099 97.9537 29.9026C97.8593 29.7885 97.794 29.6533 97.7632 29.5085C97.733 29.3597 97.7473 29.2053 97.8043 29.0646C97.8305 28.997 97.8639 28.9323 97.9039 28.8718C97.9421 28.8136 97.9841 28.7579 98.0295 28.7051V28.8545C97.9501 28.7688 97.8777 28.6768 97.813 28.5795C97.7443 28.4836 97.6848 28.3813 97.6354 28.2742C97.6086 28.2205 97.5861 28.1647 97.5683 28.1074C97.5482 28.0498 97.5338 27.9903 97.525 27.9299L97.5098 27.8389V27.7437C97.5098 27.7112 97.5098 27.6809 97.5098 27.6484L97.5315 27.5553C97.5315 27.5249 97.5466 27.4925 97.5553 27.4621L97.5986 27.3777L97.6441 27.2932C97.6614 27.2673 97.683 27.2456 97.7025 27.2218C97.7402 27.1719 97.7838 27.1268 97.8324 27.0875L97.9797 26.9814C98.0293 26.9491 98.0814 26.9208 98.1356 26.897L98.2937 26.8212L98.6228 26.7129L98.573 26.8623C98.5132 26.7783 98.4596 26.69 98.4128 26.5981C98.3666 26.5062 98.3282 26.4106 98.298 26.3123C98.2807 26.263 98.2677 26.2123 98.259 26.1607C98.2478 26.1088 98.242 26.0558 98.2417 26.0026C98.2332 25.9481 98.2332 25.8926 98.2417 25.8381L98.2547 25.7579L98.285 25.68C98.285 25.654 98.3067 25.628 98.3197 25.602L98.3673 25.5349C98.3973 25.4881 98.4354 25.447 98.4799 25.4136C98.5198 25.3774 98.5633 25.3455 98.6098 25.3184L98.7528 25.2469C98.8007 25.2278 98.8499 25.2119 98.9 25.1993C98.9476 25.1863 98.9975 25.1689 99.0473 25.1581L99.3461 25.1126L99.2963 25.2512C99.1637 25.1095 99.0495 24.9516 98.9563 24.7813C98.8575 24.609 98.7991 24.4165 98.7852 24.2183C98.7757 24.0124 98.8429 23.8103 98.9736 23.651C99.1046 23.5039 99.2656 23.3865 99.4457 23.3067C99.6189 23.227 99.7995 23.1646 99.9849 23.1204C100.169 23.0771 100.355 23.0425 100.541 23.0165C100.728 22.9905 100.912 22.971 101.1 22.9602C101.288 22.9494 101.473 22.9385 101.661 22.9342C102.41 22.9099 103.158 22.993 103.883 23.1811C104.245 23.2776 104.589 23.4319 104.903 23.638C105.058 23.7431 105.199 23.8675 105.323 24.0083C105.445 24.149 105.546 24.3065 105.624 24.476C105.542 24.3086 105.438 24.1534 105.314 24.0148C105.185 23.878 105.04 23.7579 104.881 23.6575C104.567 23.4595 104.223 23.3133 103.863 23.2244C103.14 23.0521 102.396 22.985 101.654 23.0252C101.468 23.0252 101.284 23.0447 101.1 23.062C100.916 23.0793 100.732 23.1053 100.548 23.1313C100.364 23.1573 100.186 23.1962 100.009 23.2417C99.8324 23.2882 99.6606 23.3505 99.4955 23.4279C99.3355 23.5008 99.193 23.6071 99.0776 23.7398C98.9696 23.8717 98.9154 24.0395 98.926 24.2097C98.9414 24.3846 98.9954 24.554 99.0841 24.7055C99.1723 24.8622 99.2792 25.0077 99.4024 25.1386L99.5128 25.2512L99.3548 25.2772L99.0732 25.3227C99.0278 25.3227 98.9845 25.3487 98.9412 25.3617C98.8967 25.3732 98.8532 25.3884 98.8112 25.4071L98.69 25.4678C98.6467 25.4851 98.6228 25.5219 98.586 25.5457C98.5518 25.5707 98.5231 25.6024 98.5016 25.6388L98.4648 25.6887L98.4409 25.7471L98.4193 25.8056L98.4085 25.8684C98.4009 25.9106 98.4009 25.9539 98.4085 25.9961C98.4069 26.0407 98.4121 26.0852 98.4236 26.1282C98.4308 26.1733 98.4424 26.2175 98.4583 26.2603C98.4868 26.3482 98.5222 26.4336 98.5644 26.5158C98.6071 26.5972 98.6556 26.6753 98.7095 26.7497L98.7874 26.8558L98.6575 26.8991L98.3522 27.0052C98.3023 27.0247 98.2569 27.0507 98.2092 27.0745C98.1612 27.0963 98.1149 27.1217 98.0706 27.1503L97.9472 27.2434C97.909 27.2744 97.8748 27.3101 97.8454 27.3495C97.8284 27.3681 97.8125 27.3876 97.7978 27.408L97.7675 27.4708L97.7328 27.5358L97.7177 27.6051L97.7004 27.6744C97.7004 27.7003 97.7004 27.7242 97.7004 27.748V27.8216L97.7155 27.8952C97.7224 27.9448 97.7348 27.9935 97.7523 28.0403C97.7684 28.0903 97.7887 28.1388 97.813 28.1854C97.8576 28.2805 97.9113 28.3712 97.9732 28.4561C98.0333 28.5432 98.1006 28.6251 98.1746 28.7008L98.2396 28.7657L98.1811 28.8502C98.1431 28.8961 98.1084 28.9446 98.0771 28.9953C98.0454 29.043 98.0185 29.0938 97.997 29.1469C97.9578 29.2482 97.948 29.3585 97.9689 29.4652C97.9947 29.574 98.0451 29.6755 98.1161 29.7618C98.1924 29.8543 98.2797 29.9372 98.376 30.0087C98.5777 30.156 98.7956 30.2795 99.0256 30.3768C99.2569 30.479 99.4949 30.5651 99.738 30.6345L99.8485 30.6648L99.8247 30.7753L99.3699 32.8173C99.2162 33.4994 99.0819 34.1837 98.9368 34.8658C98.7917 35.5479 98.664 36.2322 98.5297 36.9165C98.3955 37.6007 98.2764 38.2872 98.1508 38.9736C98.0252 39.6601 97.9147 40.3465 97.8 41.0351C97.6852 41.7237 97.5834 42.4123 97.486 43.101C97.3885 43.7896 97.3062 44.4847 97.2196 45.1754C97.133 45.8662 97.0637 46.5592 97.0161 47.2543C96.9879 47.6029 96.9554 47.9494 96.9338 48.2958L96.8753 49.3396C96.8537 49.6861 96.8515 50.0347 96.8385 50.3833C96.8255 50.732 96.8212 51.0784 96.8234 51.4271C96.8255 51.7757 96.8234 52.1222 96.8363 52.4708C96.8493 52.8194 96.8558 53.1659 96.8862 53.5124C96.9165 53.8589 96.9316 54.2053 96.9793 54.5496L97.0399 55.0672C97.0637 55.2404 97.094 55.4115 97.1222 55.5825C97.2316 56.2678 97.3975 56.9428 97.6181 57.6007C97.8275 58.2626 98.1411 58.8868 98.547 59.45C98.95 60.0178 99.511 60.4546 100.16 60.706C100.323 60.7668 100.489 60.8168 100.658 60.8554L100.916 60.8922L101.046 60.9117H101.176C101.533 60.9313 101.892 60.9073 102.243 60.8402Z" fill="#D15A5A"/>
    <path d="M72.5964 30.117C72.5964 30.117 74.2097 35.6259 79.4479 35.4916C84.6861 35.3574 84.8203 29.9827 84.8203 29.9827C84.8203 29.9827 92.6159 28.6402 94.0906 32.2673C95.5652 35.8944 94.764 73.9173 94.764 73.9173L65.8792 73.2504C65.8792 73.2504 61.8472 33.2114 63.8632 31.7346C65.8792 30.2578 72.5964 30.117 72.5964 30.117Z" fill="#0096C8"/>
    <path d="M82.3929 48.6683C78.363 46.0697 74.9438 42.6722 71.5224 39.3396C69.0148 36.8969 66.4487 34.3222 64.4847 31.3772C64.2662 31.4737 64.058 31.5919 63.8632 31.7302C61.8472 33.207 63.1356 73.246 63.1356 73.246L94.7662 73.9173C94.7662 73.9173 94.9719 64.2096 94.9828 54.136C90.5696 52.8952 86.2582 51.1629 82.3929 48.6683Z" fill="#0096C8"/>
    <path d="M63.8632 31.7302C63.7157 31.8905 63.6134 32.087 63.5665 32.2998C63.506 32.5078 63.4562 32.7189 63.4171 32.9321C63.337 33.3651 63.2807 33.7874 63.2309 34.2183C63.1356 35.0845 63.075 35.9507 63.0252 36.8169C62.9277 38.5492 62.8823 40.2816 62.8498 42.0139C62.7892 45.4786 62.7827 48.9541 62.8086 52.4253C62.8649 59.3648 63.0093 66.3036 63.2417 73.2417L63.1421 73.1442L71.0503 73.3088L78.9563 73.4886L94.764 73.8502L94.6947 73.9173L94.8182 56.4834L94.9654 39.0494L94.9113 56.4834L94.8312 73.9173V73.9866H94.7619L78.9542 73.6748L71.0481 73.521L63.14 73.3478H63.0425V73.2504C62.8433 66.3094 62.722 59.3677 62.6787 52.4253C62.6787 50.693 62.6787 48.9606 62.6787 47.2283C62.6917 45.4959 62.709 43.7636 62.7567 42.0204C62.8043 40.2772 62.8693 38.5557 62.9732 36.8234C63.0317 35.9572 63.101 35.091 63.2028 34.2248C63.2569 33.7917 63.3175 33.3586 63.402 32.9386C63.4421 32.7251 63.4942 32.514 63.5579 32.3062C63.6066 32.0905 63.712 31.8917 63.8632 31.7302Z" fill="#1B4268"/>
    <path d="M61.9814 33.0729C61.9814 33.0729 52.1741 55.2426 55.3985 59.2747C58.6228 63.3067 83.2114 53.4973 83.2114 53.4973L77.5682 49.3331L65.3422 50.9464L71.2538 35.2275L61.9814 33.0729Z" fill="#FFAC9D"/>
    <path d="M71.9338 57.4644C77.9256 55.6042 83.2114 53.4951 83.2114 53.4951L77.5683 49.331L66.5094 50.7883C67.5943 53.4626 69.6038 55.6086 71.9338 57.4644Z" fill="#F29083"/>
    <path d="M66.4141 48.0837L71.2517 35.2231L61.9793 33.0729C61.9793 33.0729 59.5843 38.4865 57.551 44.4522C60.1841 46.3362 63.2309 47.4535 66.4141 48.0837Z" fill="#F29083"/>
    <path d="M58.2634 53.4496C58.2634 53.4496 58.3262 53.402 58.4539 53.324C58.5817 53.2461 58.7636 53.127 59.0083 52.9949C59.253 52.8628 59.554 52.7112 59.9004 52.5401C60.2469 52.3691 60.654 52.2045 61.0958 52.0226L61.7952 51.7714C62.0377 51.6848 62.2868 51.5895 62.5509 51.518C63.0771 51.3708 63.6228 51.1781 64.2097 51.0676L65.0975 50.8727L65.327 50.8229L65.5436 50.7861L66.0026 50.7125L67.8714 50.4115C68.4994 50.3206 69.1209 50.2101 69.7445 50.1451L71.5657 49.9286C72.1547 49.8571 72.7285 49.7965 73.2699 49.7359L74.7987 49.5908C76.6913 49.4132 77.958 49.3374 77.958 49.3374L74.8138 49.7424L73.298 49.9308C72.7588 50.0066 72.1915 50.0867 71.6025 50.1603L69.7878 50.3942C69.1707 50.4656 68.547 50.5847 67.9191 50.6779L66.0503 50.9615L65.589 51.0308L65.3595 51.0655L65.143 51.1109L64.2616 51.2972C63.6791 51.4054 63.1334 51.5743 62.6072 51.7086C62.3431 51.7714 62.094 51.858 61.8493 51.936L61.1477 52.1655C60.9312 52.2456 60.7146 52.3322 60.5133 52.408C60.3119 52.4838 60.117 52.551 59.9416 52.6246C59.5886 52.7805 59.279 52.9083 59.0321 53.0382C58.7852 53.1681 58.599 53.2547 58.4604 53.3305C58.3218 53.4063 58.2634 53.4496 58.2634 53.4496Z" fill="#D15A5A"/>
    <path d="M72.5964 30.1169C72.5964 30.1169 65.4764 24.2053 60.903 31.4617C56.3296 38.7181 56.0654 41.4032 56.0654 41.4032C56.0654 41.4032 63.4561 46.5093 69.6362 47.3149L72.5964 30.1169Z" fill="#0096C8"/>
    <path d="M65.5479 27.9515L65.0282 28.0815C64.8571 28.1269 64.6926 28.2006 64.5258 28.259C64.3585 28.3178 64.1963 28.3903 64.0408 28.4756C63.8785 28.5489 63.7228 28.6358 63.5752 28.7354C63.428 28.8329 63.2764 28.9238 63.1313 29.0278L62.7199 29.3656C62.5829 29.4783 62.4534 29.5998 62.3322 29.7294C62.211 29.8571 62.0767 29.9741 61.9663 30.1126L61.6285 30.5241C61.5743 30.5934 61.5159 30.6605 61.4639 30.7406L61.3145 30.9572C61.1153 31.2517 60.9117 31.5397 60.7363 31.8493L59.6406 33.6856C59.4522 33.9888 59.2855 34.3028 59.1166 34.6146L58.6185 35.5501C58.4474 35.8619 58.2742 36.1715 58.1226 36.4942L57.6506 37.4513C57.4881 37.7675 57.3474 38.101 57.2066 38.4193C57.0659 38.7376 56.9121 39.0689 56.793 39.4002C56.6739 39.7315 56.5354 40.0499 56.4379 40.4007L56.2842 40.9074C56.2495 41.0763 56.1976 41.2517 56.1781 41.4141L56.1348 41.3188C56.6458 41.6631 57.1698 41.9966 57.7004 42.3171C58.2309 42.6375 58.7658 42.9537 59.3071 43.2569C59.5756 43.4106 59.8485 43.5579 60.1213 43.7051C60.3942 43.8524 60.6649 44.0018 60.942 44.1382C61.2192 44.2746 61.492 44.4262 61.7714 44.5583L62.6094 44.9611L63.4583 45.34C63.7398 45.4699 64.0278 45.5847 64.3244 45.6995C64.6211 45.8142 64.8961 45.9398 65.1906 46.0373L66.0568 46.3513C66.3491 46.4466 66.648 46.5332 66.9425 46.6241C67.237 46.7151 67.5379 46.793 67.8389 46.8645C68.1399 46.9359 68.4366 47.0269 68.7419 47.0702L69.6558 47.2304L69.5626 47.2997L70.4483 42.3192L71.3556 37.3539L70.5522 42.3344L69.7272 47.3149L69.7121 47.395L69.6341 47.382L68.7095 47.2304C68.3998 47.1893 68.0988 47.0984 67.7935 47.0334C67.4881 46.9684 67.1872 46.8905 66.8905 46.793C66.5938 46.6956 66.2907 46.6176 65.994 46.5224L65.1148 46.2257C64.8182 46.1282 64.5345 46.0091 64.2486 45.8879C63.9628 45.7666 63.6705 45.6605 63.3825 45.5306L62.5163 45.1516L61.6718 44.751C61.3903 44.6189 61.1153 44.4717 60.8381 44.3331C60.5609 44.1945 60.2837 44.0472 60.0109 43.9C59.738 43.7527 59.4609 43.6077 59.1923 43.4496C58.6481 43.1435 58.1118 42.8274 57.5834 42.5011C57.0507 42.1763 56.5267 41.8515 56.0092 41.4899L55.9594 41.4552V41.3946C55.9832 41.204 56.0373 41.0373 56.0741 40.8576L56.2365 40.3357C56.3383 39.9892 56.4812 39.6622 56.6003 39.3244C56.7194 38.9866 56.8818 38.6748 57.0204 38.337C57.159 37.9992 57.3063 37.6874 57.4708 37.3647L57.9516 36.4054C58.1053 36.0849 58.2829 35.7753 58.4583 35.4634L58.9823 34.528C59.1577 34.2183 59.3266 33.9043 59.5193 33.6033L60.6367 31.78C60.8143 31.4725 61.0243 31.178 61.23 30.8879L61.3838 30.6713C61.4401 30.602 61.4985 30.5349 61.557 30.4548L61.9035 30.0455C62.0204 29.9091 62.159 29.7922 62.2846 29.6666C62.4083 29.5378 62.5407 29.4177 62.6809 29.3071L63.114 28.9758C63.259 28.874 63.415 28.7852 63.5665 28.6878C63.8741 28.507 64.1964 28.3526 64.5302 28.2265C64.7012 28.1724 64.8658 28.101 65.039 28.0598L65.5479 27.9515Z" fill="#1B4268"/>
    <path d="M89.5258 48.2569C83.3457 40.732 81.5982 40.8662 79.3136 42.4795C77.0291 44.0927 75.8208 43.4193 75.8208 43.4193C71.5224 40.8662 68.3846 37.7242 65.745 42.3366C63.0577 47.0486 78.1075 63.9758 85.3595 63.036C92.6116 62.0962 95.706 55.7796 89.5258 48.2569ZM85.1062 47.7762C84.7251 48.5535 83.0425 48.5102 81.3491 47.6787C79.6558 46.8472 78.5904 45.5436 78.9672 44.7662C79.3439 43.9888 81.033 44.0343 82.7264 44.8636C84.4197 45.693 85.4873 46.9988 85.1062 47.7762Z" fill="white"/>
    <path d="M78.6423 45.1647C78.6423 45.1647 79.8506 43.0166 81.4574 42.8823C83.0642 42.748 89.6536 46.1066 82.9364 45.1647C82.9429 45.1647 81.7324 50.0477 78.6423 45.1647Z" fill="#FFAC9D"/>
    <path d="M71.4314 50.4504C72.5197 50.4504 73.402 49.5682 73.402 48.4799C73.402 47.3916 72.5197 46.5093 71.4314 46.5093C70.3431 46.5093 69.4609 47.3916 69.4609 48.4799C69.4609 49.5682 70.3431 50.4504 71.4314 50.4504Z" fill="#965450"/>
    <path d="M75.7298 55.4657C76.8181 55.4657 77.7003 54.5834 77.7003 53.4951C77.7003 52.4068 76.8181 51.5246 75.7298 51.5246C74.6415 51.5246 73.7592 52.4068 73.7592 53.4951C73.7592 54.5834 74.6415 55.4657 75.7298 55.4657Z" fill="#6F96BD"/>
    <path d="M83.0359 59.1879C83.8054 58.4183 83.8054 57.1706 83.0359 56.4011C82.2663 55.6315 81.0186 55.6315 80.2491 56.4011C79.4796 57.1706 79.4796 58.4183 80.2491 59.1879C81.0187 59.9574 82.2663 59.9574 83.0359 59.1879Z" fill="#5D8584"/>
    <path d="M87.5531 59.9437C88.6414 59.9437 89.5236 59.0615 89.5236 57.9732C89.5236 56.8849 88.6414 56.0026 87.5531 56.0026C86.4648 56.0026 85.5825 56.8849 85.5825 57.9732C85.5825 59.0615 86.4648 59.9437 87.5531 59.9437Z" fill="#FFA65B"/>
    <path d="M88.2699 53.8524C89.3582 53.8524 90.2404 52.9702 90.2404 51.8819C90.2404 50.7936 89.3582 49.9113 88.2699 49.9113C87.1816 49.9113 86.2993 50.7936 86.2993 51.8819C86.2993 52.9702 87.1816 53.8524 88.2699 53.8524Z" fill="#FC6A5A"/>
    <path d="M28.4539 62.2824C28.4539 62.2824 18.8524 72.3971 19.1837 96.637H53.4604C53.4604 96.637 54.1404 68.8307 41.4682 63.2178C28.7961 57.605 28.4539 62.2824 28.4539 62.2824Z" fill="#0096C8"/>
    <path d="M34.1491 86.6393C31.5332 85.9723 28.6662 84.9372 26.1846 83.9801C24.2357 83.2309 22.0443 82.4123 20.4548 81.1802C19.7619 83.4972 19.1556 92.6375 19.1794 96.6371H34.1491V86.6393Z" fill="#0096C8"/>
    <path d="M44.1815 64.7533C43.3294 64.154 42.4206 63.6398 41.4682 63.218C28.7939 57.603 28.4539 62.2825 28.4539 62.2825C27.6737 63.1208 26.9761 64.0324 26.3707 65.0045C32.2906 65.7462 38.2849 65.6616 44.1815 64.7533Z" fill="#0096C8"/>
   
  </g>
  <defs>
    <clipPath id="clip0_1_819">
      <rect width="154.827" height="96.7367" fill="white" transform="translate(0.173279)"/>
    </clipPath>
  </defs>
</svg>